<svg xmlns="http://www.w3.org/2000/svg" viewBox="0 0 512 512" id="tiktok">
    <path fill="currentColor" fill-rule="evenodd" d="M450 0c34.241654 0 62 27.7583455 62 62v388c0 34.241654-27.758346 62-62 62H62c-34.2416545 0-62-27.758346-62-62V62C0 27.7583455 27.7583455 0 62 0h388ZM329.608153 64c-21.435604.1716801-42.884407 0-64.491602.3301541l-.052797-.0396185c-.488373 66.3345564-.17159 132.6823184-.329981 199.1885544-.036552 6.817428-.029523 13.625713-.017357 20.429075l.012454 6.801877c.033957 20.401646-.001189 40.771644-1.143433 61.223927l-.0132.184886c-.805155 6.457814-3.22062 12.400587-6.744823 17.31328l-.131993.237711c-9.477071 15.358767-26.240136 25.752018-45.550659 26.333089h.118794c-.791956.039618-1.583912.052824-2.389067.052824-27.916443 0-51.067951-20.390315-55.450106-47.410124l.026398.316948c-.316782-2.641233-.488373-5.33529-.488373-8.05576 0-6.708731 1.016344-13.192957 2.771846-18.831988l.118793-.396185c7.761167-22.014673 28.734797-37.782832 53.391021-37.782832 6.718426 0 13.159666 1.175349 18.742955 3.195891 0-24.418195.989944-48.849596.659963-73.267791l.739159.105649c-6.876817-1.175348-13.951622-1.796038-21.171619-1.796038-64.240816 0-117.0906675 48.823184-123.5583067 111.935437-.3299816 8.082171-.1715904 16.336023.1583912 24.589875l.052797.541452c4.2237644 39.658108 27.0584905 73.75642 60.1622435 93.68452l-.527971-.303742C162.690266 453.634629 184.033475 460 206.868201 460c1.927092 0 3.840986-.039618 5.464495-.118855h.18479c40.165359-1.214967 75.486588-21.724138 97.291772-52.96992l-.263986.409391c13.040873-18.633896 21.171619-40.952311 22.531143-65.423331.488373-48.017608.171591-96.206896.329982-144.396184L332.406 197.52l.239835.163565c7.730921 5.242292 15.87216 9.989764 25.345782 14.609338l1.143289.553759-1.08234-.44901c21.396006 10.010272 45.128282 15.83419 70.365274 16.468085v-66.506236l-.369579-.026412c-26.71531-1.848863-50.949157-12.730741-69.573318-29.515774l.013057.012685-.503854-.524582c-16.831794-17.645861-27.454223-41.2691873-28.351565-67.5015743Z"/>
</svg>