<?xml version="1.0" standalone="no"?>
<!DOCTYPE svg PUBLIC "-//W3C//DTD SVG 20010904//EN"
 "http://www.w3.org/TR/2001/REC-SVG-20010904/DTD/svg10.dtd">
<svg version="1.0" xmlns="http://www.w3.org/2000/svg"
 width="500.000000pt" height="500.000000pt" viewBox="0 0 500.000000 500.000000"
 preserveAspectRatio="xMidYMid meet">
<metadata>
Created by potrace 1.11, written by Peter Selinger 2001-2013
</metadata>
<g transform="translate(0.000000,500.000000) scale(0.100000,-0.100000)"
fill="#000000" stroke="none">
<path d="M0 2500 l0 -2500 2500 0 2500 0 0 2500 0 2500 -2500 0 -2500 0 0
-2500z m815 2233 c141 -42 253 -158 296 -307 32 -109 40 -126 68 -140 19 -10
95 -15 276 -19 213 -4 262 -8 330 -26 297 -79 514 -291 607 -593 l23 -73 3
-1197 3 -1198 84 0 85 0 0 1163 c0 1336 -4 1265 89 1452 87 175 204 293 376
380 149 75 211 87 495 92 135 3 253 9 263 14 27 15 47 53 63 119 41 177 174
308 351 345 38 8 74 15 81 15 11 0 13 -55 10 -297 -4 -282 -5 -301 -27 -355
-48 -121 -148 -221 -271 -270 -51 -20 -78 -22 -345 -27 l-290 -6 -66 -31 c-78
-37 -136 -87 -177 -152 -59 -93 -62 -117 -62 -544 l0 -388 307 0 c291 0 309
-1 350 -21 84 -40 141 -146 127 -236 -9 -61 -54 -126 -111 -160 -48 -28 -50
-28 -258 -33 -205 -5 -212 -6 -267 -33 -33 -16 -70 -45 -88 -67 -61 -77 -61
-72 -58 -670 l3 -545 24 -49 c45 -92 158 -175 236 -176 48 0 53 -9 45 -70 -27
-184 -156 -328 -335 -375 -49 -12 -141 -15 -552 -15 -326 0 -510 4 -545 11
-176 38 -316 185 -350 369 -13 67 -7 80 39 80 42 0 131 41 176 81 26 22 58 65
74 97 l28 57 3 538 c2 356 -1 551 -8 577 -16 61 -68 121 -134 155 l-59 30
-221 5 c-247 6 -255 8 -319 79 -100 111 -62 282 77 347 50 23 56 24 359 24
l308 0 -3 413 -3 412 -34 67 c-42 84 -109 149 -199 191 l-67 32 -295 5 c-267
5 -300 8 -352 27 -114 42 -204 126 -261 242 l-32 66 -3 308 -3 307 43 -6 c24
-3 66 -12 93 -21z"/>
</g>
</svg>
