<svg id="calendar" width="56" height="56" viewBox="0 0 56 56" fill="none" xmlns="http://www.w3.org/2000/svg">
    <path fill-rule="evenodd" clip-rule="evenodd"
          d="M40.8333 37.3333H47.8333V35H40.8333V37.3333ZM38.5 38.5C38.5 39.144 39.0227 39.6667 39.6667 39.6667H49C49.644 39.6667 50.1667 39.144 50.1667 38.5V33.8333C50.1667 33.1893 49.644 32.6667 49 32.6667H39.6667C39.0227 32.6667 38.5 33.1893 38.5 33.8333V38.5ZM24.5 47.8333H31.5V45.5H24.5V47.8333ZM22.1667 49C22.1667 49.644 22.6893 50.1667 23.3333 50.1667H32.6667C33.3107 50.1667 33.8333 49.644 33.8333 49V44.3333C33.8333 43.6893 33.3107 43.1667 32.6667 43.1667H23.3333C22.6893 43.1667 22.1667 43.6893 22.1667 44.3333V49ZM8.16669 47.8333H15.1667V45.5H8.16669V47.8333ZM5.83331 49C5.83331 49.644 6.356 50.1667 7 50.1667H16.3333C16.9773 50.1667 17.5 49.644 17.5 49V44.3333C17.5 43.6893 16.9773 43.1667 16.3333 43.1667H7C6.356 43.1667 5.83331 43.6893 5.83331 44.3333V49ZM24.5 37.3333H31.5V35H24.5V37.3333ZM22.1667 38.5C22.1667 39.144 22.6893 39.6667 23.3333 39.6667H32.6667C33.3107 39.6667 33.8333 39.144 33.8333 38.5V33.8333C33.8333 33.1893 33.3107 32.6667 32.6667 32.6667H23.3333C22.6893 32.6667 22.1667 33.1893 22.1667 33.8333V38.5ZM8.16669 37.3333H15.1667V35H8.16669V37.3333ZM5.83331 38.5C5.83331 39.144 6.356 39.6667 7 39.6667H16.3333C16.9773 39.6667 17.5 39.144 17.5 38.5V33.8333C17.5 33.1893 16.9773 32.6667 16.3333 32.6667H7C6.356 32.6667 5.83331 33.1893 5.83331 33.8333V38.5ZM40.8333 26.8333H47.8333V24.5H40.8333V26.8333ZM39.6667 29.1667H49C49.644 29.1667 50.1667 28.644 50.1667 28V23.3333C50.1667 22.6893 49.644 22.1667 49 22.1667H39.6667C39.0227 22.1667 38.5 22.6893 38.5 23.3333V28C38.5 28.644 39.0227 29.1667 39.6667 29.1667ZM24.5 26.8333H31.5V24.5H24.5V26.8333ZM23.3333 29.1667H32.6667C33.3107 29.1667 33.8333 28.644 33.8333 28V23.3333C33.8333 22.6893 33.3107 22.1667 32.6667 22.1667H23.3333C22.6893 22.1667 22.1667 22.6893 22.1667 23.3333V28C22.1667 28.644 22.6893 29.1667 23.3333 29.1667ZM8.16669 26.8333H15.1667V24.5H8.16669V26.8333ZM7 29.1667H16.3333C16.9773 29.1667 17.5 28.644 17.5 28V23.3333C17.5 22.6893 16.9773 22.1667 16.3333 22.1667H7C6.356 22.1667 5.83331 22.6893 5.83331 23.3333V28C5.83331 28.644 6.356 29.1667 7 29.1667ZM47.8333 52.017V47.8333H52.017L47.8333 52.017ZM54.8333 12.8333C54.1893 12.8333 53.6667 13.356 53.6667 14V16.3333H2.33331V9.33334C2.33448 8.04534 3.37869 7.00117 4.66669 7H9.33331V10.5C9.33331 11.144 9.856 11.6667 10.5 11.6667C11.144 11.6667 11.6667 11.144 11.6667 10.5V7H16.3333V10.5C16.3333 11.144 16.856 11.6667 17.5 11.6667C18.144 11.6667 18.6667 11.144 18.6667 10.5V7H23.3333V10.5C23.3333 11.144 23.856 11.6667 24.5 11.6667C25.144 11.6667 25.6667 11.144 25.6667 10.5V7H30.3333V10.5C30.3333 11.144 30.856 11.6667 31.5 11.6667C32.144 11.6667 32.6667 11.144 32.6667 10.5V7H37.3333V10.5C37.3333 11.144 37.856 11.6667 38.5 11.6667C39.144 11.6667 39.6667 11.144 39.6667 10.5V7H44.3333V10.5C44.3333 11.144 44.856 11.6667 45.5 11.6667C46.144 11.6667 46.6667 11.144 46.6667 10.5V7H51.3333C52.6213 7.00117 53.6655 8.04534 53.6667 9.33334C53.6667 9.97734 54.1893 10.5 54.8333 10.5C55.4773 10.5 56 9.97734 56 9.33334C55.9977 6.75734 53.9093 4.669 51.3333 4.66666H46.6667V1.16667C46.6667 0.522668 46.144 0 45.5 0C44.856 0 44.3333 0.522668 44.3333 1.16667V4.66666H39.6667V1.16667C39.6667 0.522668 39.144 0 38.5 0C37.856 0 37.3333 0.522668 37.3333 1.16667V4.66666H32.6667V1.16667C32.6667 0.522668 32.144 0 31.5 0C30.856 0 30.3333 0.522668 30.3333 1.16667V4.66666H25.6667V1.16667C25.6667 0.522668 25.144 0 24.5 0C23.856 0 23.3333 0.522668 23.3333 1.16667V4.66666H18.6667V1.16667C18.6667 0.522668 18.144 0 17.5 0C16.856 0 16.3333 0.522668 16.3333 1.16667V4.66666H11.6667V1.16667C11.6667 0.522668 11.144 0 10.5 0C9.856 0 9.33331 0.522668 9.33331 1.16667V4.66666H4.66669C2.09069 4.669 0.002333 6.75734 0 9.33334V51.3333C0.002333 53.9093 2.09069 55.9977 4.66669 56H9.33331C9.97731 56 10.5 55.4773 10.5 54.8333C10.5 54.1893 9.97731 53.6667 9.33331 53.6667H4.66669C3.37869 53.6655 2.33448 52.6213 2.33331 51.3333V18.6667H53.6667V45.5H46.6667C46.0227 45.5 45.5 46.0227 45.5 46.6667V53.6667H14C13.356 53.6667 12.8333 54.1893 12.8333 54.8333C12.8333 55.4773 13.356 56 14 56H46.6667C46.9759 56 47.2722 55.8763 47.4915 55.6582L55.6581 47.4915C55.7538 47.3923 55.832 47.2757 55.8868 47.1497C55.9393 47.0178 55.9732 46.879 55.986 46.739C55.9872 46.7133 56 46.6912 56 46.6667V14C56 13.356 55.4773 12.8333 54.8333 12.8333Z"
          fill="currentColor"/>
</svg>
