<svg id="marker" width="50" height="56" viewBox="0 0 50 56" fill="none" xmlns="http://www.w3.org/2000/svg">
    <path fill-rule="evenodd" clip-rule="evenodd"
          d="M8.07184 32.1735H17.0299L20.3632 37.0282H6.85757L8.07184 32.1735ZM13.9288 23.453C10.2646 18.1397 10.9194 10.897 15.4764 6.32772C18.0019 3.75267 21.4596 2.30045 25.0649 2.30045C32.4343 2.30045 38.4991 8.36905 38.4991 15.7445C38.4991 18.5019 37.6509 21.1937 36.0712 23.453L25 39.5716L13.9288 23.453ZM49.9637 54.5168L45.8328 38.0289C45.8233 37.8954 45.7906 37.7644 45.7376 37.6417L44.0114 30.6903C43.8781 30.1631 43.4002 29.7909 42.8567 29.7909H37.4997C36.8467 29.7909 36.3093 30.3287 36.3093 30.9822C36.3093 31.6356 36.8467 32.1735 37.4997 32.1735H41.9282L43.1186 36.9388H32.7379C32.085 36.9388 31.5475 37.4767 31.5475 38.1301C31.5475 38.7836 32.085 39.3215 32.7379 39.3215H43.7138L47.2852 53.6173H2.71481L4.20883 47.6607H41.6663C42.3192 47.6607 42.8567 47.1228 42.8567 46.4694C42.8567 45.816 42.3192 45.2781 41.6663 45.2781H4.80405L6.26236 39.4287H22.0239L24.0417 42.3653C24.2637 42.6893 24.6316 42.8835 25.0238 42.8835C25.4161 42.8835 25.7839 42.6893 26.0059 42.3653L38.0354 24.8052C39.8496 22.1658 40.821 19.0362 40.821 15.8327C40.821 7.14735 33.679 0 25 0C16.321 0 9.17896 7.14735 9.17896 15.8327C9.17896 19.0362 10.1504 22.1658 11.9646 24.8052L15.3931 29.7909H7.14328C6.59984 29.7909 6.12189 30.1631 5.98856 30.6903L0.0363159 54.5168C0.0125069 54.6121 0 54.7104 0 54.8087C0 55.4621 0.537499 56 1.19046 56H48.809C49.4619 56 50 55.4621 50 54.8087C50 54.7104 49.9875 54.6121 49.9637 54.5168ZM20.7739 19.6884C18.4823 17.3749 18.4906 13.5877 20.7918 11.2836L20.7739 11.2658C21.8899 10.1489 23.4048 9.52047 24.9833 9.52047C28.2487 9.52047 30.9356 12.2093 30.9356 15.4771C30.9356 18.7449 28.2487 21.4337 24.9833 21.4337C23.4048 21.4337 21.8899 20.8053 20.7739 19.6884ZM30.8927 21.392C32.4552 19.8284 33.3337 17.7061 33.3337 15.495C33.3337 10.9203 29.5719 7.15569 25.0006 7.15569C20.4293 7.15569 16.6674 10.9203 16.6674 15.495C16.6674 20.0697 20.4287 23.8336 25 23.8342C27.2095 23.8342 29.3303 22.955 30.8927 21.392Z"
          fill="currentColor"/>
</svg>
