<svg id="people" width="54" height="56" viewBox="0 0 54 56" fill="none" xmlns="http://www.w3.org/2000/svg">
    <path fill-rule="evenodd" clip-rule="evenodd"
          d="M43.4091 4.27979L43.2082 4.29895V1.08664C43.2082 0.487687 43.6917 0 44.2861 0C44.8799 0 45.3633 0.487687 45.3633 1.08664V4.29833L45.1624 4.27917C44.9927 4.2631 44.8192 4.26001 44.6458 4.25321H43.9269C43.7523 4.25321 43.5789 4.26372 43.4091 4.27979ZM43.1512 23.9165C45.7077 23.9165 47.7875 26.0144 47.7875 28.5931C47.7875 31.1719 45.7077 33.2698 43.1512 33.2698C40.5946 33.2698 38.5148 31.1719 38.5148 28.5931C38.5148 26.0144 40.5946 23.9165 43.1512 23.9165ZM43.1512 35.4263C46.8868 35.4263 49.9256 32.3611 49.9256 28.5931C49.9256 24.8251 46.8868 21.7599 43.1512 21.7599C39.415 21.7599 36.3762 24.8251 36.3762 28.5931C36.3762 32.3611 39.415 35.4263 43.1512 35.4263ZM50.3925 17.0444C50.1051 17.0444 49.8342 16.9313 49.6302 16.7267L47.877 14.9583L48.0363 14.8285C48.4836 14.4632 48.8716 14.0243 49.189 13.5249L49.3122 13.3302L51.1548 15.1888C51.3589 15.394 51.4704 15.6678 51.4704 15.9584C51.4704 16.2489 51.3583 16.5215 51.1548 16.7267C50.9514 16.9313 50.6805 17.0444 50.3925 17.0444ZM37.3444 47.7175C37.1483 50.4019 34.9667 53.014 32.5793 53.4226C28.7297 53.9845 24.8336 53.9845 21.0018 53.4251C18.6088 53.0215 16.4219 50.4087 16.2251 47.7199C16.0315 44.9873 15.8379 42.3078 15.6448 39.6981C15.556 38.3074 16.7533 36.6799 18.1045 36.3498C20.9314 35.7237 23.8537 35.4059 26.7896 35.4059C29.72 35.4059 32.6327 35.7224 35.4429 36.3455C36.8321 36.6842 38.0148 38.2783 37.926 39.6876C37.7323 42.3084 37.5387 44.9879 37.3444 47.7175ZM50.2038 37.1651L50.2001 37.1645C48.2735 36.7374 46.2635 36.4889 44.2242 36.4264C43.691 36.4104 43.202 36.6051 42.8233 36.9753C42.4409 37.3499 42.2302 37.8512 42.2302 38.3889V38.5787L42.6873 38.5657C42.843 38.5602 42.9992 38.554 43.1548 38.554C45.3787 38.554 47.589 38.7938 49.7203 39.2667C50.6425 39.491 51.4894 40.6284 51.43 41.5598L51.2725 43.7121C50.9833 47.5184 47.6963 51.9398 43.7358 52.1586C42.0874 52.1919 40.4132 52.0887 38.7636 51.847C38.5853 51.8174 38.4033 51.7661 38.2115 51.6919C38.9456 50.4922 39.3819 49.1768 39.4756 47.8732C39.6411 45.5516 39.8053 43.2769 39.9714 41.0289L40.0584 39.8359C40.1399 38.5447 39.6546 37.1657 38.7256 36.0543C37.9621 35.1414 36.9681 34.4986 35.9239 34.2445C29.9461 32.9211 23.619 32.9218 17.6235 34.2488C16.5903 34.5016 15.6025 35.1426 14.8414 36.055C13.9136 37.1682 13.4289 38.5496 13.5116 39.8483L13.5981 41.0307C13.7629 43.2751 13.9277 45.5516 14.0932 47.8775C14.1876 49.1799 14.6238 50.4946 15.358 51.6931C15.1705 51.7655 14.9891 51.8168 14.8182 51.8458C13.1587 52.0887 11.4895 52.1963 9.85332 52.161C5.87936 51.9503 2.58617 47.5289 2.29632 43.7158L2.14007 41.5722C2.08063 40.6333 2.9177 39.4941 3.82708 39.2722C5.97492 38.7969 8.19442 38.5552 10.4244 38.5552C10.5849 38.5552 10.7449 38.5614 10.9054 38.5676L11.3381 38.5806V38.3902C11.3381 37.8524 11.1273 37.3511 10.7443 36.9766C10.3656 36.6063 9.86308 36.4085 9.34405 36.4283C7.3059 36.4913 5.28916 36.7411 3.346 37.1706C1.40835 37.6441 -0.120581 39.7265 0.00749872 41.7212L0.165702 43.8771C0.522962 48.5933 4.55627 54.0401 9.77849 54.3158C11.5685 54.3399 13.3695 54.236 15.1583 53.974C15.6834 53.8856 16.2116 53.702 16.7306 53.4294C17.8815 54.5667 19.275 55.3202 20.6722 55.5551C22.6883 55.8505 24.7447 56.0001 26.7853 56.0001C28.8253 56.0001 30.8824 55.8505 32.9212 55.5514C34.3073 55.3177 35.6959 54.5655 36.8437 53.4276C37.3688 53.7026 37.902 53.8874 38.4351 53.9777C39.9892 54.2051 41.5781 54.3207 43.1567 54.3207C43.3687 54.3207 43.5801 54.3189 43.8271 54.3133C49.0242 54.0382 53.046 48.5908 53.4039 43.8728L53.5619 41.7094C53.6888 39.7203 52.1512 37.6398 50.2038 37.1651ZM37.4179 4.4065C37.2139 4.20129 37.1017 3.92809 37.1017 3.63696C37.1017 3.34707 37.2145 3.07386 37.4179 2.86927C37.8242 2.45884 38.5338 2.45822 38.9413 2.86927L41.1038 5.05119L40.9194 5.17667C40.4463 5.49747 40.0229 5.89986 39.6601 6.37333L39.5326 6.5396L37.4179 4.4065ZM34.5721 9.79766C34.5721 9.19871 35.0555 8.71102 35.65 8.71102H38.622L38.5926 8.92303C38.5509 9.21602 38.5313 9.46141 38.5313 9.69505L38.5406 10.8849H35.65C35.0555 10.8849 34.5721 10.3972 34.5721 9.79766ZM10.4195 23.9165C12.9761 23.9165 15.0552 26.0144 15.0552 28.5931C15.0552 31.1719 12.9761 33.2698 10.4195 33.2698C7.86292 33.2698 5.78313 31.1719 5.78313 28.5931C5.78313 26.0144 7.86292 23.9165 10.4195 23.9165ZM10.4195 35.4263C14.1551 35.4263 17.1939 32.3611 17.1939 28.5931C17.1939 24.8251 14.1551 21.7599 10.4195 21.7599C6.68391 21.7599 3.64507 24.8251 3.64507 28.5931C3.64507 32.3611 6.68391 35.4263 10.4195 35.4263ZM26.7853 18.4184C30.0172 18.4184 32.646 21.0701 32.646 24.3294C32.646 27.5887 30.0172 30.2404 26.7853 30.2404C23.5541 30.2404 20.9252 27.5887 20.9252 24.3294C20.9252 21.0701 23.5541 18.4184 26.7853 18.4184ZM26.7853 32.3976C31.1956 32.3976 34.7841 28.7786 34.7841 24.3294C34.7841 19.8809 31.1956 16.2612 26.7853 16.2612C22.3751 16.2618 18.7872 19.8815 18.7872 24.3294C18.7872 28.7786 22.3751 32.3976 26.7853 32.3976ZM47.6534 5.17667L47.4677 5.05119L49.6302 2.86927C50.0499 2.44586 50.7338 2.44524 51.1548 2.86927C51.3589 3.0751 51.4711 3.3483 51.4705 3.63881C51.4705 3.92932 51.3583 4.20191 51.1548 4.40712L49.0395 6.5396L48.912 6.37333C48.5505 5.90048 48.1265 5.49808 47.6534 5.17667ZM54.0001 9.79766C54.0001 10.3972 53.5166 10.8849 52.9222 10.8849H50.0323L50.0408 9.69505C50.0408 9.46141 50.0212 9.21602 49.9802 8.92242L49.9501 8.7104H52.9222C53.5166 8.7104 54.0001 9.19871 54.0001 9.79766ZM39.3831 13.5242C39.7012 14.0255 40.0891 14.4644 40.5358 14.8285L40.6945 14.9583L38.9413 16.7261C38.7379 16.9313 38.4676 17.0444 38.1796 17.0444C37.8916 17.0444 37.6214 16.9313 37.4179 16.7261C37.2139 16.5208 37.1017 16.2476 37.1017 15.9571C37.1017 15.6666 37.2145 15.3934 37.4179 15.1888L39.2599 13.3308L39.3831 13.5242ZM44.6464 16.0406C44.8204 16.0406 44.9933 16.0307 45.163 16.014L45.3639 15.9954V18.5087C45.3639 19.1082 44.8805 19.5959 44.2867 19.5959C43.6923 19.5959 43.2088 19.1082 43.2088 18.5087V15.9948L43.4105 16.014C43.5808 16.0313 43.7492 16.0474 43.9275 16.0406H44.6464ZM46.9008 10.4275C46.9008 11.7583 45.8278 12.8406 44.5097 12.8406H44.0624C42.7437 12.8406 41.6707 11.7583 41.6707 10.4275V9.86565C41.6707 8.53547 42.7437 7.45317 44.0624 7.45317H44.5097C45.8278 7.45317 46.9008 8.53547 46.9008 9.86565V10.4275ZM49.0567 10.4275V9.86565C49.0567 7.33696 47.0172 5.27989 44.5097 5.27989H44.0624C41.5555 5.27989 39.5154 7.33696 39.5154 9.86565V10.4275C39.5154 12.9568 41.5555 15.0139 44.0624 15.0139H44.5097C47.0172 15.0139 49.0567 12.9568 49.0567 10.4275Z"
          fill="currentColor"/>
</svg>