<svg id="trees" xmlns="http://www.w3.org/2000/svg" width="56" height="56" viewBox="0 0 56 56" fill="none">
    <path fill-rule="evenodd" clip-rule="evenodd"
          d="M47.8302 37.0831C47.8302 36.1229 48.619 35.1869 49.1569 34.6596C49.6589 35.1566 50.4801 36.1167 50.4801 37.0831C50.4801 38.0405 49.692 38.9766 49.1548 39.5039C48.6176 38.9759 47.8302 38.0399 47.8302 37.0831ZM26.4685 23.3738C26.4685 21.632 27.1788 19.9294 28.4662 18.5791C28.7958 18.2324 28.8661 17.7168 28.6392 17.295C28.1903 16.4616 27.9628 15.5828 27.9628 14.6833C27.9628 13.2213 28.5703 11.7938 29.675 10.664C30.0108 10.3201 30.0853 9.80308 29.8598 9.37779C29.5074 8.71125 29.3281 8.01093 29.3281 7.29683C29.3281 4.48935 32.0146 2.20573 35.3176 2.20573C38.6192 2.20573 41.3056 4.48935 41.3056 7.29683C41.3056 8.01093 41.1264 8.71125 40.774 9.37779C40.5485 9.80308 40.623 10.3201 40.9595 10.664C42.0635 11.7938 42.6717 13.2213 42.6717 14.6833C42.6717 15.5828 42.4434 16.4616 41.9945 17.295C41.7677 17.7161 41.8373 18.2324 42.1676 18.5791C43.455 19.9294 44.1652 21.632 44.1652 23.3738C44.1652 27.5578 40.1962 30.9622 35.3176 30.9622C30.4383 30.9622 26.4685 27.5578 26.4685 23.3738ZM34.2143 53.795H25.5818V34.2736C26.3203 34.6127 27.1215 34.7892 27.9352 34.7892C29.6108 34.7892 31.1692 34.0613 32.2518 32.782C32.8765 32.9405 33.5344 33.0494 34.2143 33.108V53.795ZM25.3163 31.3827C25.1136 31.1476 24.8087 31.0119 24.4819 31.0119C24.1551 31.0119 23.851 31.147 23.6483 31.382C22.9863 32.1457 22.032 32.5841 21.0287 32.5841C19.4903 32.5841 18.158 31.5957 17.7119 30.1261C17.5712 29.6595 17.1492 29.3451 16.6617 29.3431C14.7613 29.3327 13.2146 27.7791 13.2146 25.8801C13.2146 25.2763 13.3767 24.6773 13.6828 24.1486C13.88 23.8081 13.88 23.3842 13.6828 23.0437C13.3767 22.515 13.2146 21.916 13.2146 21.3122C13.2146 19.4021 14.7717 17.8478 16.6845 17.8478C17.163 17.8478 17.585 17.5417 17.734 17.0861C18.1994 15.6558 19.5234 14.6943 21.0287 14.6943C22.032 14.6943 22.9863 15.132 23.6475 15.895C24.053 16.3665 24.9109 16.3658 25.3163 15.8957C25.4577 15.7324 25.6176 15.5814 25.7962 15.4442C25.8721 16.1942 26.0603 16.9276 26.3582 17.6355C25.0046 19.2953 24.2627 21.3232 24.2627 23.3738C24.2627 26.912 26.4775 30.2061 29.9577 31.9258C29.3702 32.3532 28.6703 32.5841 27.9352 32.5841C26.9319 32.5841 25.9776 32.1457 25.3163 31.3827ZM5.5206 31.9548C5.5206 30.9974 6.30946 30.0599 6.84732 29.5319C7.34931 30.0289 8.16983 30.9884 8.16983 31.9548C8.16983 32.9143 7.38169 33.851 6.84384 34.3777C6.34115 33.8807 5.5206 32.9212 5.5206 31.9548ZM2.98715 49.5289C2.30932 48.8507 2.20456 47.6306 2.21145 46.8765C2.95341 46.8745 4.17456 46.9703 4.86135 47.6555C5.5385 48.333 5.64332 49.5531 5.63711 50.3072C4.91377 50.3147 3.67187 50.212 2.98715 49.5289ZM2.98715 40.8508C2.30932 40.1725 2.20456 38.9525 2.21145 38.1991C2.22524 38.1984 2.2397 38.1984 2.25418 38.1984C2.96648 38.1984 4.18904 38.3059 4.86135 38.9773C5.5385 39.6549 5.64332 40.8756 5.63711 41.629C4.90687 41.6228 3.67256 41.5352 2.98715 40.8508ZM8.84146 42.7836C9.52274 42.1018 10.7515 42.0129 11.4942 42.0074C11.4983 42.7132 11.3997 43.9719 10.7157 44.6563C10.0399 45.3319 8.82563 45.4373 8.06643 45.4311C8.05885 44.6791 8.16501 43.4604 8.84146 42.7836ZM45.2851 49.7847C44.6072 49.1064 44.5024 47.8884 44.51 47.1357C45.2588 47.1323 46.4787 47.2343 47.1586 47.9119C47.8364 48.5894 47.9412 49.8095 47.9343 50.5629C47.2275 50.6029 45.9712 50.4698 45.2851 49.7847ZM51.1394 44.1056C51.8186 43.426 53.0515 43.326 53.7921 43.3302C53.7955 44.036 53.6976 45.2946 53.0136 45.9784C52.3351 46.6567 51.1111 46.7539 50.3609 46.7539C50.3567 46.048 50.4553 44.7901 51.1394 44.1056ZM54.8926 53.795H50.2581V48.9589C51.4938 48.9879 53.3439 48.7666 54.5727 47.5383C56.431 45.682 55.9648 42.4803 55.9055 42.1211C55.8283 41.6559 55.4636 41.2912 54.9967 41.2133C54.6788 41.1623 52.1379 40.8025 50.2581 42.0095V41.4863C51.0953 40.7646 52.6861 39.1234 52.6861 37.0831C52.6861 34.4073 49.914 32.3953 49.7968 32.3112C49.4141 32.0368 48.8983 32.0368 48.5115 32.3112C48.2164 32.5242 45.6243 34.4638 45.6243 37.0831C45.6243 39.1214 47.2137 40.7632 48.0515 41.4856V45.8164C46.1263 44.573 43.4274 44.9989 43.2998 45.0203C42.8344 45.0975 42.4703 45.4614 42.3924 45.9274C42.3331 46.2865 41.8676 49.4876 43.7246 51.3432C44.9575 52.577 46.8248 52.781 48.0515 52.7645V53.795H36.4201V33.1073C42.0317 32.6124 46.3711 28.4022 46.3711 23.3738C46.3711 21.3232 45.6291 19.2953 44.2755 17.6362C44.6755 16.6877 44.8775 15.6958 44.8775 14.6833C44.8775 12.9008 44.2314 11.1403 43.0523 9.69762C43.3577 8.92355 43.5115 8.11708 43.5115 7.29683C43.5115 3.27344 39.8355 0 35.3176 0C30.7983 0 27.1222 3.27344 27.1222 7.29683C27.1222 8.11708 27.276 8.92355 27.5814 9.69762C26.8216 10.6289 26.2761 11.7069 25.9914 12.8415C25.448 13.0414 24.935 13.3219 24.4833 13.6659C23.4938 12.9042 22.2802 12.4886 21.0287 12.4886C18.8407 12.4886 16.8617 13.7382 15.9204 15.6931C13.1464 16.068 11.0088 18.4902 11.0088 21.3122C11.0088 22.0911 11.1749 22.8768 11.4921 23.5965C11.1749 24.3154 11.0088 25.1005 11.0088 25.8801C11.0088 28.7248 13.0829 31.0946 15.8749 31.4923C16.7948 33.5036 18.7911 34.7892 21.0287 34.7892C21.8403 34.7892 22.6401 34.6134 23.3759 34.277V53.795H7.94851V47.6368C9.18557 47.6534 11.0418 47.4487 12.2747 46.2155C14.1331 44.3593 13.667 41.1582 13.6077 40.7991C13.5305 40.3331 13.1657 39.9685 12.7023 39.892C12.5747 39.8706 9.91098 39.4377 7.94851 40.7012V36.358C8.78425 35.6377 10.3764 33.9965 10.3764 31.9548C10.3764 29.2707 7.60443 27.2663 7.48721 27.1828C7.10313 26.9085 6.5873 26.9085 6.20529 27.1822C6.08668 27.2663 3.31399 29.2714 3.31399 31.9548C3.31399 33.9958 4.9069 35.6377 5.74264 36.358V36.8722C3.80982 35.6273 1.12746 36.0637 1.00265 36.0864C0.537203 36.1622 0.172428 36.5269 0.0945088 36.9935C0.0352068 37.3526 -0.430261 40.553 1.42739 42.41C2.65618 43.6397 4.50972 43.8637 5.74264 43.8306V45.5504C3.88085 44.3496 1.32394 44.7122 1.00192 44.7646C0.53647 44.8418 0.172428 45.2057 0.0945088 45.6717C0.0352068 46.0301 -0.430261 49.2312 1.42739 51.0874C2.65618 52.3171 4.50972 52.537 5.74264 52.5087V53.795H1.10745C0.499262 53.795 0.00484818 54.2899 0.00484818 54.8978C0.00484818 55.5058 0.499262 56 1.10745 56H54.8926C55.5008 56 55.9959 55.5058 55.9959 54.8978C55.9959 54.2899 55.5008 53.795 54.8926 53.795Z"
          fill="currentColor"/>
</svg>