<?xml version="1.0" encoding="UTF-8"?>
<svg  width="52" height="52" viewBox="0 0 42 38" version="1.1" xmlns="http://www.w3.org/2000/svg" xmlns:xlink="http://www.w3.org/1999/xlink" id="score_endurance">
    <defs>
        <path d="M20.9995507,0 C23.5065574,0 25.4744229,0.849674605 27.1098179,1.92262137 C27.613915,1.91287536 28.2420145,1.99350142 28.6823132,2.33018166 C29.2010217,2.72310368 30.219467,3.72106866 30.7445572,4.24326994 L30.9709965,4.46934123 C31.0274739,4.52592235 31.0631296,4.56174759 31.0725059,4.57087725 C31.1893199,4.72238336 31.2701911,4.90755749 31.243234,5.11222364 C32.7159881,6.16745039 33.7592264,6.21529442 35.7729189,6.22858443 C37.1468304,6.24630444 38.5755547,6.25516445 39.8694936,6.91966492 C41.137374,7.56555938 42,8.86886631 42,10.1438212 C42,12.3714926 40.4121981,13.017012 38.8209817,13.5929862 L38.6564258,13.6523837 L38.3847456,13.7508068 C35.9762541,14.6286641 33.3737404,15.7894978 33.3737404,21.9196556 C33.3737404,25.1173527 33.9100133,27.5876854 33.0709565,30.4711282 L32.9415289,30.885982 L32.878629,31.0720421 C30.525783,37.7004343 22.6439424,37.9928794 21.5325353,38.0004001 L21.4104482,38.0004962 C21.304489,38.0002126 21.1692005,37.998795 20.9815793,37.991707 C20.8313387,37.998795 20.6972003,38.0002126 20.6127492,38.0004962 L20.5081752,38.0003944 C19.3433813,37.9927339 11.4734815,37.6989049 9.11238527,31.0809021 C9.0800368,30.948888 8.45553155,29.494075 8.45553155,26.9255592 C8.45553155,25.0259738 8.6262596,23.4985087 8.6262596,21.9196556 C8.6262596,15.7894978 6.01456742,14.6286641 3.60540844,13.7508068 L3.33368991,13.6523837 C1.68930917,13.0596493 0,12.4483089 0,10.1438212 C0,8.86886631 0.854538842,7.56555938 2.13859353,6.91966492 C4.57012045,5.66243003 7.72229948,6.75309681 9.90222717,5.65268402 C9.92918423,5.63496401 9.95614129,5.626104 9.98399692,5.60838399 C9.95614129,5.55522395 9.92019854,5.49231791 9.90222717,5.42143786 C9.75935474,4.92616351 10.2445818,4.57087725 10.5051668,4.38481712 C11.717336,3.42793644 12.5170621,2.77318197 12.7686613,2.5251018 C13.2098586,2.09096149 14.0545132,2.05552146 14.6295971,2.09096149 C16.3099206,0.948020675 18.3577587,0 20.9995507,0 Z M10.0370125,30.956862 C10.0549838,31.0179961 10.1430436,31.2660762 10.1897692,31.3467023 C10.9939881,33.4571558 13.2242357,35.5844433 16.5794912,36.529806 C16.752915,36.529806 18.9795683,37.3883406 22.6169744,37.0525464 C22.7526583,37.0436864 22.8964293,37.0250803 23.0491859,37.0082463 C26.0108684,36.6130901 27.8664128,35.7208874 29.4919236,34.4379585 C30.2476199,33.7991521 30.8487623,33.0664295 31.1273186,32.5871032 C31.3925761,32.1972629 31.6244787,31.7728332 31.8216463,31.3106385 L31.9629875,30.956862 L31.9629875,30.948002 C27.170022,22.47252 14.8147023,22.474292 10.0370125,30.956862 Z M28.7320939,30.348977 C28.8659806,30.1416528 29.1454355,30.0831768 29.3512077,30.2107609 C29.5614728,30.341003 29.6243726,30.6147772 29.4913844,30.8212153 C28.3987249,32.5258805 26.4515265,33.6324953 24.4099784,33.7095774 L24.4099784,33.7095774 L24.392007,33.7095774 C24.1520892,33.7095774 23.9526069,33.5217453 23.9427227,33.2842971 C23.9346355,33.0388749 24.1278278,32.8333228 24.3749342,32.8235768 C26.1262446,32.7580127 27.7957853,31.809992 28.7320939,30.348977 Z M30.5872788,5.74128409 C30.0193834,5.9060802 24.5569842,6.22681243 23.0042575,6.28085847 C22.6960484,7.14382308 22.4660148,8.03779772 22.3492009,8.95480837 C22.0643546,11.1715819 22.3581866,13.6665597 21.101089,15.6955012 C20.2699129,17.0475381 18.8483772,18.0682109 16.6280139,18.9081395 C14.9297191,19.5584639 13.2431056,19.9890602 11.7811343,20.8892369 C10.7082433,21.5493073 9.88066152,22.474292 9.48888556,23.4338307 C9.3612888,25.8862804 9.19235789,27.8266218 9.67758499,29.8218952 C14.9306177,21.6839794 27.0361353,21.6476534 32.3125308,29.8218952 C32.9505145,27.2808454 32.4751717,25.0498958 32.4751717,21.9196556 C32.4751717,14.9379706 35.8708628,13.7152898 38.3509125,12.8204291 C40.1579341,12.1647887 41.1014313,11.7572284 41.1014313,10.1438212 C41.1014313,9.20554655 40.4185191,8.19550583 39.456152,7.70731948 C38.3509125,7.14116508 37.0938149,7.13230508 35.7630346,7.11458506 C33.4887572,7.09952305 32.2658052,6.99231698 30.5872788,5.74128409 Z M18.9210714,27.1019619 C19.3739501,27.1019619 19.7405661,27.4634501 19.7405661,27.9091085 C19.7405661,28.3556528 19.3739501,28.717141 18.9210714,28.717141 C18.4690914,28.717141 18.1024753,28.3556528 18.1024753,27.9091085 C18.1024753,27.4634501 18.4690914,27.1019619 18.9210714,27.1019619 Z M23.0752444,27.1019619 C23.5281231,27.1019619 23.8947391,27.4634501 23.8947391,27.9091085 C23.8947391,28.3556528 23.5281231,28.717141 23.0752444,28.717141 C22.6223658,28.717141 22.2557498,28.3556528 22.2557498,27.9091085 C22.2557498,27.4634501 22.6223658,27.1019619 23.0752444,27.1019619 Z M10.9903939,6.03366429 C8.27491924,7.96071566 5.04276759,6.41996057 2.55193513,7.70731948 C1.57249524,8.20436584 0.898568708,9.20554655 0.898568708,10.1438212 C0.898568708,11.7572284 1.83308017,12.1647887 3.64908752,12.8204291 C6.05749235,13.6906083 9.32485981,14.868458 9.51739922,21.3231009 L9.52482831,21.6804354 C12.4487709,18.1390909 18.1232323,18.8248554 20.3328127,15.2356668 C21.1289446,13.9509659 21.2143086,12.4146408 21.3032669,10.7870577 C21.3985152,9.06998845 21.4757921,8.07323774 22.0526732,6.31629849 C21.1756702,6.33667651 20.3579727,6.36148453 19.1395135,6.36148453 C14.8120066,6.36148453 12.3822768,6.11517635 10.9903939,6.03366429 Z M16.6219935,11.0455927 C17.5753749,11.0455927 18.3490426,11.8084392 18.3490426,12.7484859 C18.3490426,13.6894185 17.5753749,14.4513791 16.6219935,14.4513791 C15.6677136,14.4513791 14.8949445,13.6894185 14.8949445,12.7484859 C14.8949445,11.8084392 15.6677136,11.0455927 16.6219935,11.0455927 Z M25.3752209,11.0458585 C26.3295009,11.0458585 27.10227,11.807819 27.10227,12.7487517 C27.10227,13.6887983 26.3295009,14.4516449 25.3752209,14.4516449 C24.4209409,14.4516449 23.6481718,13.6887983 23.6481718,12.7487517 C23.6481718,11.807819 24.4209409,11.0458585 25.3752209,11.0458585 Z M12.8682828,6.66263614 C13.5971237,6.76718422 13.05895,7.1676565 13.5960986,7.69039687 C14.9563966,9.18153593 12.7298952,10.5911629 11.4741567,9.50669816 C10.9267572,9.03357383 10.8734524,8.22022525 11.4741567,7.68153687 C11.6555981,7.52560076 12.0400079,7.36346264 12.5095003,6.82211625 C12.5812568,6.76009621 12.7657735,6.66263614 12.8682828,6.66263614 Z M12.6847912,7.66381685 C12.5402531,7.78697094 12.3659873,7.92075704 12.1609688,8.06251714 C11.9631259,8.15997721 11.8124373,8.35578335 11.8124373,8.59411752 C11.8124373,9.15229791 12.5997085,9.43493211 13.0425485,9.03711783 C13.2485922,8.8599177 13.4115819,8.55867749 13.0117957,8.11567717 C12.8477809,7.96505707 12.7452716,7.80557695 12.6847912,7.66381685 Z M15.0510259,3.03012216 C14.6889027,2.97076011 13.6582444,2.89810806 13.3976594,3.15416224 C13.0211592,3.52628251 11.200659,4.99349955 10.9805096,5.13880366 C11.0793522,5.15652367 11.1961661,5.16538368 11.3489228,5.18310369 C17.2201707,5.61192799 23.3951349,5.59066398 30.1299074,4.92616351 C30.1379945,4.9173035 30.1469802,4.9173035 30.1658501,4.9173035 C29.6976958,4.45658317 28.6292976,3.41110243 28.1350848,3.03012216 C27.0541067,2.23094959 24.2433838,4.00206485 15.0510259,3.03012216 Z M16.0762928,2.2415816 C19.4908539,2.56054182 22.0868189,2.50738178 25.6451509,2.09096149 C22.696947,0.497932354 19.2671102,0.411104293 16.0762928,2.2415816 Z" id="path-1"></path>
    </defs>
    <g id="Molecules" stroke="none" stroke-width="1" fill="none" fill-rule="evenodd">
        <g id="Molecules-/-Activities-/-Stats" transform="translate(-10.000000, -12.000000)">
            <g id="Icon" transform="translate(10.000000, 12.000000)">
                <mask id="mask-2" fill="white">
                    <use xlink:href="#path-1"></use>
                </mask>
                <use id="Combined-Shape" fill="currentColor" xlink:href="#path-1"></use>
                <g id="Atoms-/-Colors-/-Brand-/-Primary" mask="url(#mask-2)" fill-rule="nonzero">
                    <g transform="translate(-10.000000, -12.000000)" id="Rectangle">
                        <rect x="0" y="0" width="64" height="64"></rect>
                    </g>
                </g>
            </g>
        </g>
    </g>
</svg>