<?xml version="1.0" encoding="UTF-8"?>
<svg width="64" height="64" viewBox="0 0 51 36" version="1.1" xmlns="http://www.w3.org/2000/svg" xmlns:xlink="http://www.w3.org/1999/xlink" id="score_strategy">
    <defs>
        <path d="M19.3871489,3.55271368e-15 C23.0987872,3.55271368e-15 25.5184468,2.05534884 27.4626383,3.70716279 C28.2708511,4.39451163 28.9695319,4.98725581 29.6408298,5.33637209 C30.654,5.86297674 31.808234,5.87302326 33.0313404,5.88474419 C34.3009149,5.89730233 35.6152979,5.90818605 36.8093617,6.5335814 C37.9843404,7.14809302 38.7751277,8.37376744 38.7751277,9.58353488 C38.7751277,11.7569302 37.2076596,12.3354419 35.6924681,12.8955349 C35.5629273,12.943398 35.4324082,12.9916178 35.3014365,13.0410906 L35.0390455,13.1419721 C32.9375827,13.9666367 30.81,15.2649794 30.81,20.7075349 C30.81,21.4819535 30.8498298,22.2764651 30.8888298,23.044186 C30.9278298,23.8261395 30.9676596,24.6332093 30.9676596,25.436093 C30.9676596,26.6416744 30.8168637,27.7632455 30.5263448,28.7866942 L30.4108723,29.1658605 L30.4158511,29.175907 L30.357766,29.344186 C30.3569362,29.3458605 30.3561064,29.3483721 30.3561064,29.3500465 C28.5670851,34.5214884 23.2971064,35.6132093 20.931383,35.840093 C20.4460496,35.8869767 20.0826643,35.897478 19.8965916,35.8992328 L19.7681009,35.8994612 C19.6711021,35.8991665 19.542983,35.897693 19.3697234,35.8903256 C19.2323106,35.897693 19.1102987,35.8991665 19.031303,35.8994612 L18.931758,35.89936 C17.8698606,35.8919625 10.8351489,35.6204177 8.53200063,29.6661042 L8.41902128,29.3584186 L8.35761702,29.1851163 L8.36425532,29.1733953 C7.99831915,28.0515349 7.8066383,26.7990698 7.8066383,25.436093 C7.8066383,24.6332093 7.84729787,23.8261395 7.88629787,23.044186 C7.92446809,22.2764651 7.96429787,21.4819535 7.96429787,20.7075349 C7.96429787,15.2649794 5.83671513,13.9666367 3.73586876,13.1419721 L3.47355805,13.0410906 C3.34262816,12.9916178 3.21215335,12.943398 3.08265957,12.8955349 C1.5666383,12.3354419 0,11.7569302 0,9.58353488 C0,8.37627907 0.793276596,7.15060465 1.97323404,6.53274419 C3.16314894,5.90818605 4.4783617,5.89730233 5.74876596,5.88474419 C6.97270213,5.87302326 8.12859574,5.86297674 9.14342553,5.33637209 C9.80808511,4.98893023 10.5042766,4.39786047 11.3091702,3.71218605 C13.2566809,2.05869767 15.678,3.55271368e-15 19.3871489,3.55271368e-15 Z M19.3871489,23.2266977 C15.171,23.2266977 11.3124894,25.5273488 9.27038298,29.2428837 C9.32929787,29.4019535 9.39734043,29.5501395 9.4637234,29.7 C9.53425532,29.859907 9.59980851,30.0256744 9.67697872,30.1755349 C9.76410638,30.343814 9.86285106,30.4953488 9.95910638,30.6527442 C10.0437447,30.7900465 10.1217447,30.9340465 10.2130213,31.0621395 C10.3175745,31.212 10.4312553,31.3459535 10.5432766,31.484093 C10.6378723,31.6021395 10.7291489,31.7260465 10.8295532,31.8357209 C10.9482128,31.9663256 11.0751702,32.0835349 11.1996383,32.2032558 C11.3033617,32.3037209 11.4029362,32.4100465 11.5108085,32.5029767 C11.6410851,32.6168372 11.778,32.7164651 11.9140851,32.8202791 C12.0219574,32.9031628 12.129,32.9935814 12.2410213,33.0714419 C12.3812553,33.1685581 12.5248085,33.2522791 12.6675319,33.340186 C12.780383,33.4096744 12.8907447,33.484186 13.0044255,33.547814 C13.1512979,33.6306977 13.299,33.7010233 13.4467021,33.7730233 C13.5595532,33.8299535 13.6715745,33.8910698 13.7844255,33.9429767 C13.934617,34.0107907 14.0848085,34.0677209 14.2341702,34.1271628 C14.3445319,34.1723721 14.4557234,34.2217674 14.5660851,34.2611163 C14.7162766,34.3163721 14.8614894,34.3615814 15.0091915,34.4084651 C15.1170638,34.4427907 15.2274255,34.4829767 15.3336383,34.5139535 C15.4788511,34.5566512 15.6182553,34.5901395 15.7601489,34.6269767 C15.8630426,34.6529302 15.9692553,34.683907 16.0688298,34.7073488 C16.2132128,34.7408372 16.3492979,34.7659535 16.4878723,34.7935814 C16.5774894,34.8111628 16.6704255,34.8329302 16.7567234,34.8488372 C16.8944681,34.8731163 17.0214255,34.8906977 17.1508723,34.9107907 C17.2272128,34.9225116 17.3101915,34.9367442 17.3832128,34.9467907 C17.5101702,34.9626977 17.6213617,34.9744186 17.7358723,34.9869767 C17.799766,34.9936744 17.8702979,35.0028837 17.9308723,35.0087442 C18.041234,35.0196279 18.135,35.0254884 18.2304255,35.032186 C18.279383,35.0355349 18.3382979,35.0413953 18.3831064,35.043907 C18.497617,35.0506047 18.591383,35.0539535 18.6776809,35.0573023 C18.6909574,35.0573023 18.7108723,35.0589767 18.7241489,35.0589767 C18.7866596,35.0606512 18.8399504,35.0615814 18.882792,35.0620155 L19.0243115,35.0621948 C19.1151343,35.0618023 19.2263777,35.0602326 19.3688936,35.0539535 C19.5254468,35.0595349 19.6377447,35.0613953 19.7139007,35.0620155 L19.8611418,35.0620155 C19.9055816,35.0615814 19.9599787,35.0606512 20.0235957,35.0589767 C20.0410213,35.0589767 20.0675745,35.0573023 20.0858298,35.0564651 C20.1704681,35.0539535 20.2592553,35.0506047 20.369617,35.043907 C20.4210638,35.0405581 20.486617,35.0346977 20.5422128,35.0305116 C20.6343191,35.0246512 20.7222766,35.0187907 20.8268298,35.0087442 C20.8940426,35.0020465 20.9745319,34.992 21.0458936,34.9844651 C21.1545957,34.9727442 21.2591489,34.9618605 21.3778085,34.9467907 C21.4599574,34.9350698 21.5545532,34.9191628 21.6416809,34.9057674 C21.7628298,34.8873488 21.879,34.8714419 22.007617,34.8488372 C22.1030426,34.8312558 22.2059362,34.807814 22.3046809,34.7877209 C22.4349574,34.7617674 22.5635745,34.7383256 22.6988298,34.7065116 C22.8067021,34.6813953 22.9187234,34.6487442 23.0290851,34.6211163 C23.1643404,34.5859535 23.2979362,34.5541395 23.4365106,34.5131163 C23.5518511,34.4796279 23.6713404,34.4369302 23.7875106,34.3992558 C23.9260851,34.3548837 24.0646596,34.3130233 24.2048936,34.2611163 C24.3260426,34.2175814 24.4463617,34.164 24.5683404,34.1154419 C24.7085745,34.0585116 24.8479787,34.0057674 24.9882128,33.9421395 C25.1101915,33.8868837 25.2305106,33.8207442 25.3524894,33.7604651 C25.4918936,33.6909767 25.6321277,33.6248372 25.7698723,33.5469767 C25.8926809,33.4783256 26.0121702,33.3979535 26.1333191,33.3226047 C26.2669149,33.2405581 26.403,33.1610233 26.5341064,33.0706047 C26.6535957,32.9868837 26.7689362,32.8906047 26.886766,32.7993488 C27.0128936,32.7013953 27.1415106,32.6084651 27.2651489,32.5013023 C27.3788298,32.4025116 27.4850426,32.2903256 27.5945745,32.1831628 C27.713234,32.0684651 27.8335532,31.9579535 27.9464043,31.8340465 C28.0517872,31.7176744 28.1480426,31.5870698 28.247617,31.4623256 C28.3538298,31.3300465 28.4633617,31.2027907 28.5629362,31.0596279 C28.6567021,30.9248372 28.7405106,30.7741395 28.8276383,30.6301395 C28.9197447,30.4794419 29.0143404,30.3329302 29.0981489,30.172186 C29.1786383,30.0164651 29.2458511,29.844 29.3180426,29.6782326 C29.3819362,29.5325581 29.4474894,29.3893953 29.5047447,29.236186 C27.4601489,25.524 23.6024681,23.2266977 19.3871489,23.2266977 Z M19.5008737,31.8991163 C20.3279691,31.8991163 21.000083,32.346832 21.000083,32.8991163 C21.000083,33.4514005 20.3279691,33.8991163 19.5008737,33.8991163 C18.6721968,33.8991163 18.000083,33.4514005 18.000083,32.8991163 C18.000083,32.346832 18.6721968,31.8991163 19.5008737,31.8991163 Z M25.0064681,2.81804651 C23.0465106,3.49953488 21.4350638,5.18986047 20.876617,7.19246512 C20.6094255,8.15023256 20.5538298,9.20595349 20.498234,10.2256744 C20.4152553,11.8004651 20.3272979,13.4305116 19.4834043,14.827814 C18.4760426,16.4946977 16.6447021,17.3595349 15.3535532,17.8643721 C14.9245532,18.031814 14.4889149,18.1858605 14.0549362,18.3407442 C12.9189574,18.7434419 11.8468723,19.1235349 10.8768511,19.7338605 C9.87944681,20.3609302 9.1127234,21.2408372 8.75757447,22.1525581 C8.74346809,22.4656744 8.73019149,22.7787907 8.71442553,23.0860465 C8.67542553,23.8579535 8.63559574,24.6541395 8.63559574,25.436093 C8.63559574,26.4147907 8.74014894,27.3298605 8.94095745,28.172093 C11.2095957,24.583814 15.1261915,22.3894884 19.3871489,22.3894884 C23.645617,22.3894884 27.5638723,24.5813023 29.8341702,28.1653953 C30.0341489,27.3223256 30.1387021,26.4106047 30.1387021,25.436093 C30.1387021,24.6549767 30.0997021,23.8579535 30.0607021,23.0868837 C30.0217021,22.3082791 29.9810426,21.5028837 29.9810426,20.7075349 C29.9810426,14.1136744 33.1168085,12.9549767 35.4070213,12.1093953 C37.0757234,11.4932093 37.9453404,11.1013953 37.9453404,9.58353488 C37.9453404,8.69190698 37.3205106,7.74418605 36.4276596,7.27702326 C35.4086809,6.74372093 34.2502979,6.73367442 33.0238723,6.72195349 C31.757617,6.71023256 30.4490426,6.69851163 29.2607872,6.07981395 C28.5073404,5.68883721 27.7397872,5.03665116 26.9282553,4.34762791 C26.3424255,3.84948837 25.7051489,3.31786047 25.0064681,2.81804651 Z M44.3007751,14.8991163 C47.9954347,14.8991163 51.000083,17.816846 51.000083,21.4035225 C51.000083,24.9845911 47.9954347,27.8991163 44.3007751,27.8991163 C43.8718937,27.8991163 43.4380543,27.8582584 43.0091729,27.7797473 C41.7440144,27.6155149 40.5168684,27.5346003 39.3368251,27.5346003 C38.5112905,27.5346003 37.2395211,27.5778616 35.8727201,27.7829519 C35.7834731,27.7965711 35.7322387,27.8005768 35.7214961,27.8005768 C35.3240165,27.8005768 35.000083,27.4809244 35.000083,27.0875676 C35.000083,26.8512331 35.1562652,26.6733814 35.4653242,26.3160757 C36.1090593,25.5766291 37.4461113,24.0360486 37.5932035,21.4211475 C38.3716355,15.3677796 42.9248841,14.8991163 44.3007751,14.8991163 Z M44.3007751,15.7002502 C43.0959408,15.7002502 39.1087494,16.1184421 38.4154326,21.4924484 C38.2567713,24.3468885 36.7982443,26.0260652 36.0966639,26.832807 C36.060304,26.8752671 36.0214651,26.9185284 35.9859315,26.9609885 C37.3254626,26.7735231 38.5344286,26.7342676 39.3368251,26.7342676 C40.5532283,26.7342676 41.8167342,26.8167844 43.0909827,26.9810168 C43.5421757,27.0627325 43.9239545,27.0979824 44.3007751,27.0979824 C47.5392835,27.0979824 50.1737221,24.5439675 50.1737221,21.4035225 C50.1737221,18.2590719 47.5392835,15.7002502 44.3007751,15.7002502 Z M18.0006315,24.8991163 C18.5524692,24.8991163 19.000083,25.3467301 19.000083,25.8996648 C19.000083,26.4525995 18.5524692,26.8991163 18.0006315,26.8991163 C17.4476968,26.8991163 17.000083,26.4525995 17.000083,25.8996648 C17.000083,25.3467301 17.4476968,24.8991163 18.0006315,24.8991163 Z M21.000083,24.8991163 C21.5516181,24.8991163 22.000083,25.3467301 22.000083,25.8996648 C22.000083,26.4525995 21.5516181,26.8991163 21.000083,26.8991163 C20.4474514,26.8991163 20.000083,26.4525995 20.000083,25.8996648 C20.000083,25.3467301 20.4474514,24.8991163 21.000083,24.8991163 Z M43.7983345,23.8991163 C43.9099687,23.8991163 44.000083,23.9871005 44.000083,24.0960959 L44.000083,24.0960959 L44.000083,24.7027932 C44.000083,24.8117886 43.9099687,24.8991163 43.7983345,24.8991163 L43.7983345,24.8991163 L43.2018315,24.8991163 C43.0901973,24.8991163 43.000083,24.8117886 43.000083,24.7027932 L43.000083,24.7027932 L43.000083,24.0960959 C43.000083,23.9871005 43.0901973,23.8991163 43.2018315,23.8991163 L43.2018315,23.8991163 Z M43.6084476,17.8991163 C45.2646022,17.8991163 46.000083,18.676821 46.000083,19.6542955 C46.000083,21.5130591 44.0740757,21.3724803 44.0740757,22.5735655 L44.0740757,22.5735655 L44.0740757,22.8991163 L42.8897223,22.8991163 L42.8897223,22.4255878 C42.8897223,21.1595569 43.9532593,20.9597871 44.4603354,20.3399252 C44.6852126,20.0661666 44.7046138,19.5901719 44.4603354,19.2744862 C44.1552079,18.8807013 43.2706908,18.8774129 42.8791399,19.0525198 C42.3561901,19.2859956 42.2918135,19.7291064 42.3288521,20.2560712 L42.3288521,20.2560712 L41.0377923,20.2560712 C40.799687,18.9851077 41.6930228,17.8991163 43.6084476,17.8991163 Z M19.3871489,0.837209302 C15.9808723,0.837209302 13.6873404,2.78623256 11.844383,4.35265116 C11.0361702,5.03916279 10.2719362,5.68883721 9.52346809,6.07981395 C8.33355319,6.69851163 7.02331915,6.71023256 5.75623404,6.72195349 C4.52897872,6.73367442 3.36976596,6.74372093 2.35576596,7.27618605 C1.45793617,7.74669767 0.829787234,8.6944186 0.829787234,9.58353488 C0.829787234,11.1013953 1.69940426,11.4932093 3.36810638,12.1093953 C5.63093617,12.9457674 8.71774468,14.0969302 8.78661702,20.4957209 C9.2297234,19.9423256 9.77987234,19.4374884 10.4370638,19.023907 C11.4850851,18.364186 12.6509362,17.9506047 13.7794468,17.5512558 C14.2059574,17.3997209 14.6332979,17.248186 15.054,17.084093 C16.926,16.3506977 18.107617,15.4950698 18.774766,14.3924651 C19.5107872,13.1743256 19.5887872,11.7209302 19.6701064,10.1813023 C19.7273617,9.11469767 19.7862766,8.01293023 20.0775319,6.9655814 C20.6517447,4.90772093 22.206766,3.13534884 24.1501277,2.25293023 C22.8291064,1.44753488 21.2857021,0.837209302 19.3871489,0.837209302 Z M15.4996927,10.8991163 C16.3287325,10.8991163 17.000083,11.5704668 17.000083,12.3995066 C17.000083,13.2269851 16.3287325,13.8991163 15.4996927,13.8991163 C14.6714335,13.8991163 14.000083,13.2269851 14.000083,12.3995066 C14.000083,11.5704668 14.6714335,10.8991163 15.4996927,10.8991163 Z M23.4996927,10.8991163 C24.3287325,10.8991163 25.000083,11.5704668 25.000083,12.3995066 C25.000083,13.2269851 24.3287325,13.8991163 23.4996927,13.8991163 C22.6706528,13.8991163 22.000083,13.2269851 22.000083,12.3995066 C22.000083,11.5704668 22.6706528,10.8991163 23.4996927,10.8991163 Z M16.9667709,9.10680518 C17.0534228,9.28256433 16.9652236,9.48831413 16.7694832,9.56642931 C16.2155302,9.78752317 15.6074197,9.89911628 15.000083,9.89911628 C14.3919725,9.89911628 13.7846358,9.78752317 13.2306828,9.56642931 C13.0349424,9.48831413 12.9467432,9.28256433 13.033395,9.10680518 C13.1200469,8.92965111 13.3513765,8.85153594 13.5432484,8.92895366 C14.4561878,9.29372364 15.5447519,9.29372364 16.4569175,8.92895366 C16.6495632,8.85153594 16.880119,8.92965111 16.9667709,9.10680518 Z M25.9224146,8.04742465 C26.0429636,8.27078495 26.0207937,8.59956297 25.8725322,8.78221743 C25.8087936,8.86049791 25.730506,8.89911628 25.653604,8.89911628 C25.5538393,8.89911628 25.4540745,8.83336068 25.3847935,8.70706817 C24.9898914,7.97749409 24.1585185,7.64036615 23.5495379,8.30522837 C23.3936554,8.47013924 23.1781913,8.42212722 23.065956,8.18728577 C22.9537206,7.95453181 22.9883612,7.62784127 23.1435508,7.45875543 C24.0975511,6.41710317 25.3293686,6.95462914 25.9224146,8.04742465 Z" id="path-1"></path>
    </defs>
    <g id="Molecules" stroke="none" stroke-width="1" fill="none" fill-rule="evenodd">
        <g id="Molecules-/-Activities-/-Stats" transform="translate(-7.000000, -14.000000)">
            <g id="Icon" transform="translate(6.999917, 14.100884)">
                <mask id="mask-2" fill="white">
                    <use xlink:href="#path-1"></use>
                </mask>
                <use id="Combined-Shape" fill="#000" xlink:href="#path-1"></use>
                <g id="Atoms-/-Colors-/-Brand-/-Primary" mask="url(#mask-2)" fill-rule="nonzero">
                    <g transform="translate(-6.999917, -14.100884)" id="Rectangle">
                        <rect x="0" y="0" width="64" height="64"></rect>
                    </g>
                </g>
            </g>
        </g>
    </g>
</svg>