<svg xmlns="http://www.w3.org/2000/svg" width="70" height="70" id="score_fun" viewBox="0 0 64 64">
  <path fill="currentColor" fill-rule="evenodd" d="M32 8c6 0 9 4.7 11.6 6 2.4 1.3 5.5 0 8.2 1.4A4 4 0 0154 19c0 2.5-1.8 3.1-3.5 3.8-2.6 1-5.5 2-5.5 8.8 0 3.5.6 6.3-.5 9.6a9.8 9.8 0 01-2.5 4 24 24 0 012 4.3 2.2 2.2 0 011-.8c1.3-.6 2.2 1 .8 1.7a2.5 2.5 0 01.4 0c1 .5 1 1.6.3 2 1.2 1 .5 2.5-.7 2.1.2 1.9-2.1 2.2-2.1.2a2.6 2.6 0 010-.4c-1.3 1-2.4-.6-1.4-1.6a1 1 0 01-.7-1.4 1 1 0 01.1-.2c-1.3-.4-.6-2.5 1.4-1.7a33 33 0 00-1.8-3.5 14.7 14.7 0 01-9.4 3h-.5c-1.2 0-9.4-.3-11.9-7.4v-.2c-1-3.4-.5-6.2-.5-9.7 0-6.6-2.7-7.8-5.3-8.7l-.2-.2C11.8 22 10 21.4 10 19a4 4 0 012.2-3.5c2.7-1.4 5.8-.1 8.2-1.3C23 12.7 26 8 32 8zm12.7 45.5a2.7 2.7 0 00-.3 1.2c0 .4.1.6.3.6s.4-.1.4-.6a2 2 0 00-.4-1.2zm-.7-1a2 2 0 00-1.1.6c-.3.3-.2.6-.1.7s.3.1.6-.2a2.5 2.5 0 00.6-1zm1 0a2.7 2.7 0 00.7 1c.3.4.5.4.6.3s.2-.4-.1-.8a2 2 0 00-1.2-.5zm-1.3-1.2c-.4-.2-1.2-.1-1.4.3s0 .5.6.3a2.4 2.4 0 00.8-.7zM46 51a1.8 1.8 0 00-1 0 2.2 2.2 0 00.8.6c.7.2.8-.4.2-.6zm-2.8-1c-.3-.2-1-.3-1.2 0s0 .3.4.3a2.2 2.2 0 00.8-.3zm2.7-.8s-.2-.2-.5 0a1.6 1.6 0 00-.7.5 2 2 0 00.9-.1c.1-.1.3-.2.3-.4zM32 34.3a13.1 13.1 0 00-11.5 7c1.7 4.5 6.9 6.7 11.5 6.5a13.7 13.7 0 008.8-2.8 20.4 20.4 0 00-1.5-2.2 6.6 6.6 0 01-3.7 1.4.5.5 0 010-1 5.7 5.7 0 004.5-2.7.5.5 0 01.7-.1.5.5 0 01.1.6 6.5 6.5 0 01-.9 1.2 24.5 24.5 0 011.5 2.1l.5-.5a4.4 4.4 0 00.7-1 5 5 0 00.6-1.1l.2-.5A13 13 0 0032 34.4zm6.4-23.1a7.5 7.5 0 00-4.7 5c-.8 2.8 0 6-1.6 8.7-2.8 4.7-10.3 3.5-12.2 8.3 0 2.5-.3 4.6.3 6.8a14 14 0 0123.7 0c.6-2.7.1-5.2.1-8.4 0-7.5 3.6-8.8 6.2-9.8 1.9-.7 2.9-1.1 2.9-2.9a3.2 3.2 0 00-1.8-2.6c-2.3-1.2-5.5 0-8.1-1.3-1.5-.8-2.9-2.4-4.8-3.8zm-8.6 25.9a.9.9 0 01.9.9.9.9 0 11-1.7 0 .9.9 0 01.8-1zm4.4 0a.9.9 0 010 1.7.9.9 0 010-1.7zM32 9c-3.9 0-6.5 2.2-8.6 4-2.6 2.3-3.3 2.7-6.9 2.7a8.1 8.1 0 00-3.8.6 3.1 3.1 0 00-1.8 2.6c0 1.8 1 2.2 3 3 2.5.9 6 2.2 6 9.5 3-3.8 9-3.1 11.4-7 1.4-2.3.7-5.5 1.5-8.4a8.6 8.6 0 014.6-5.4A10.2 10.2 0 0032 9zm7.2 12a.5.5 0 01-.1.6.5.5 0 01-.7-.2 2.1 2.1 0 00-1.8-1 2 2 0 00-1.8 1.2.5.5 0 01-.4.3.5.5 0 01-.5-.6 3 3 0 015.3-.4zm-9.1.2a.5.5 0 01-.4.7.5.5 0 01-.5-.3 2 2 0 00-3.6-.2.5.5 0 01-.6.2.5.5 0 01-.2-.7 3 3 0 015.3.3z"/>
</svg>