<?xml version="1.0" encoding="UTF-8"?>
<svg width="64" height="64" viewBox="0 0 56 38" version="1.1" xmlns="http://www.w3.org/2000/svg" xmlns:xlink="http://www.w3.org/1999/xlink" id="score_variation">
    <defs>
        <path d="M21.2867148,0 C25.3618865,0 28.0188547,2.17593435 30.1539022,3.92483272 C31.0410764,4.65132545 31.8080175,5.27947588 32.5449003,5.64892402 C33.6579669,6.2061971 34.9249682,6.21771467 36.2675706,6.22923224 C37.6630026,6.24252174 39.1057992,6.25492528 40.4156108,6.91674244 C41.7062943,7.56615607 42.5743405,8.8632114 42.5743405,10.1443193 C42.5743405,12.2150894 41.1806482,12.9180509 39.6887555,13.4700223 L39.3561339,13.5906918 C39.3006031,13.610554 39.2450692,13.6303327 39.189598,13.6500898 C39.0068968,13.715168 38.8224226,13.780879 38.6373997,13.8492326 L38.3596069,13.9539963 C36.0901044,14.8298571 33.8301188,16.2531084 33.8301188,21.9188175 C33.8301188,22.7392227 33.8738399,23.5800051 33.9157393,24.3924366 C33.9585495,25.2199296 34.0022706,26.0757735 34.0022706,26.9254156 C34.0022706,28.3638269 33.7984027,29.6934947 33.3953526,30.8817558 L33.3956403,30.883915 L33.3438756,31.0297143 C33.3392936,31.0425586 33.334688,31.0553859 33.3300586,31.0681961 C32.1996404,34.2184665 29.8034893,35.938244 27.4776326,36.8765184 C25.0627671,37.8506881 22.7236792,37.9824176 21.9557278,37.9980614 L21.8865153,37.9992353 L21.8273655,37.999833 L21.7785773,38 L21.7048854,37.999922 L21.6183832,37.9993763 L21.5176279,37.9978949 C21.4815069,37.9971933 21.44277,37.9962577 21.4011767,37.9950102 L21.2675868,37.9902544 C21.1921679,37.9941526 21.1209754,37.9964916 21.0577984,37.9978949 L20.9695182,37.9993763 L20.8961032,37.999922 L20.8403952,38 L20.7895967,37.9998331 L20.7285135,37.9992355 L20.657443,37.9980623 C19.1128199,37.96737 11.5587966,37.4896693 9.24428194,31.0761698 L9.17778942,30.8918887 L9.179,30.887 L9.11697882,30.7010985 C8.75486967,29.5615211 8.57115903,28.2937026 8.57115903,26.9254156 C8.57115903,26.0757735 8.615791,25.2199296 8.65860125,24.3924366 C8.7014115,23.5800051 8.74513261,22.7392227 8.74513261,21.9188175 C8.74513261,16.2531084 6.48514695,14.8298571 4.21500035,13.9539963 L3.93712542,13.8492326 C3.8445855,13.8150558 3.75218164,13.7815396 3.66006683,13.7484329 L3.3847425,13.6500898 C1.7206078,13.057378 -3.55271368e-15,12.445175 -3.55271368e-15,10.1443193 C-3.55271368e-15,8.86675526 0.871689606,7.56881397 2.16874917,6.91585647 C3.47400643,6.25492528 4.91680302,6.24252174 6.31223508,6.22923224 C7.65665917,6.21771467 8.92548218,6.2061971 10.0394596,5.64892402 C10.7699665,5.28124781 11.534175,4.65486932 12.4195275,3.92926255 C14.5563967,2.17859225 17.2151866,0 21.2867148,0 Z M21.2867148,24.5855774 C16.6548892,24.5855774 12.4145982,27.0246976 10.172681,30.9634081 L10.196,31.027 L10.2618301,31.1899232 C10.2779142,31.2284383 10.2942171,31.2667032 10.3107355,31.3047196 L10.319,31.325 L10.345,31.383 L10.348,31.389 L10.366,31.429 L10.376,31.451 L10.377,31.454 L10.3810374,31.4625635 L10.433,31.572 L10.44,31.587 L10.446,31.6 L10.448,31.605 L10.455,31.619 L10.494,31.699 L10.509,31.729 L10.513732,31.7384675 L10.546,31.802 L10.571,31.85 L10.574,31.856 L10.575,31.857 L10.574,31.857 L10.5786511,31.8649441 L10.5883635,31.8837493 L10.639,31.978 L10.64,31.979 L10.643,31.985 L10.651,32 L10.653,32.004 L10.656,32.009 L10.71,32.106 L10.728,32.138 L10.7306859,32.1422251 L10.733,32.147 L10.775,32.218 L10.816048,32.2876971 L10.818,32.291 L10.8599139,32.3601779 L10.894,32.416 L10.922,32.461 L10.9036685,32.4303062 L10.949,32.501 L10.996,32.573 L11.002,32.582 L10.998,32.577 L11.0217164,32.6130072 L11.042,32.643 L11.052,32.658 L11.08,32.699 L11.111,32.744 L11.1221295,32.7603019 L11.1348377,32.7782384 L11.172,32.831 L11.165,32.82 L11.189,32.854 L11.191,32.857 L11.203,32.873 L11.214,32.889 L11.248,32.936 L11.2150159,32.8904972 L11.3032494,33.0095998 L11.338,33.055 L11.3636276,33.0887758 L11.379,33.108 L11.386,33.117 L11.392,33.125 L11.451,33.201 L11.3931011,33.1264444 L11.472,33.226 L11.517,33.281 L11.5563451,33.3283964 L11.585,33.362 L11.606,33.387 L11.633,33.418 L11.643,33.43 L11.644,33.431 L11.65,33.438 L11.671,33.462 L11.702,33.497 L11.729,33.528 L11.732,33.531 L11.745,33.546 L11.7482135,33.5499235 L11.754,33.556 L11.78,33.584 L11.809,33.616 L11.8425393,33.6533688 L11.9381496,33.7547953 L12.0316129,33.850797 L12.112,33.93 L12.1261968,33.9449542 L12.146,33.963 L12.217,34.033 L12.2428702,34.0571824 L12.266,34.079 L12.3095344,34.1195028 L12.351,34.157 L12.385,34.188 L12.3610834,34.1667327 C12.4903784,34.2843565 12.6222819,34.3972924 12.7564036,34.5057269 L12.761,34.509 L12.842,34.574 L12.8707521,34.5966754 L12.9377542,34.648582 L12.948,34.656 L12.966,34.67 L13.01,34.703 L13.0362268,34.7231486 L13.022,34.712 L13.069,34.747 L13.1622736,34.8156758 L13.259,34.884 L13.262,34.886 L13.279,34.898 L13.285,34.902 L13.292,34.907 L13.363,34.956 L13.3996808,34.9815713 L13.4758601,35.0326838 L13.4,34.981 L13.497,35.046 L13.481,35.036 L13.498,35.047 L13.5800902,35.1008842 L13.597,35.111 L13.6,35.113 L13.622,35.127 L13.649,35.144 L13.6964366,35.1748499 L13.698,35.175 L13.813382,35.2469846 L13.7345901,35.1985317 L13.8352995,35.2601656 L13.886,35.29 L13.909,35.304 L13.9307912,35.3172594 L14.0487028,35.3857515 L14.0487028,35.3857515 L14.0555188,35.3895372 L14.125,35.428 L14.139,35.436 L14.155,35.445 L14.247,35.496 L14.1750886,35.4568157 L14.4025415,35.579358 L14.6311359,35.6957176 L14.7385037,35.7481375 L14.8668068,35.8091291 L14.958,35.851 C14.98743,35.8645261 15.0228064,35.8804834 15.0581894,35.8962375 L15.079,35.905 L15.076,35.904 L15.0893212,35.9101983 C15.1170425,35.9224474 15.1447669,35.9345721 15.1724917,35.9465737 L15.084,35.907 L15.2910534,35.9969952 L15.5237604,36.0920498 L15.6184396,36.1293405 L15.57,36.11 L15.7582975,36.1824406 C15.8363511,36.2116483 15.9142595,36.2399428 15.991963,36.2673527 L16.0734447,36.2959443 L16.099,36.304 L16.1548958,36.3238146 L16.163,36.326 L16.2066964,36.3410596 L16.224,36.347 L16.231,36.349 L16.233,36.35 L16.237,36.351 L16.246,36.354 L16.2574798,36.3580699 L16.319,36.378 L16.4315595,36.4139871 L16.3597431,36.3913238 C16.507548,36.4387496 16.6542471,36.4830734 16.7994175,36.5244974 L16.8431254,36.5367543 L16.85,36.538 L16.842,36.536 L16.8952275,36.5514807 L16.95,36.566 L16.954,36.567 L16.8865209,36.5488976 C16.9627494,36.5701364 17.0385292,36.5905801 17.1137982,36.6102584 L17.001,36.58 L17.2066309,36.634364 C17.2781809,36.6525777 17.3492405,36.6701028 17.4197556,36.6869651 L17.4813297,36.701425 L17.495,36.704 L17.5404142,36.7153012 C17.5804482,36.7245323 17.6202933,36.7335507 17.6599391,36.7423612 C17.708338,36.7531169 17.75644,36.763563 17.8042266,36.7737081 L17.7446135,36.7607898 C17.9993012,36.815908 18.2453436,36.8624706 18.4799764,36.9017974 C18.6473626,36.929963 18.8091531,36.9543592 18.9641143,36.975544 C19.0406257,36.9859147 19.1154783,36.9955962 19.1885445,37.0045527 C19.2396827,37.0109008 19.2900556,37.0168242 19.3395077,37.022411 C19.3924114,37.0283166 19.4443414,37.0339191 19.4951629,37.0391596 C19.5480149,37.0446724 19.5996141,37.0497228 19.6499592,37.0544101 C19.7356111,37.0623292 19.8171904,37.0692215 19.8948994,37.0752082 C19.9988506,37.0832519 20.0955368,37.0896134 20.1846826,37.0946829 C20.2181598,37.0965617 20.2508611,37.0983 20.2824441,37.0998698 C20.4080434,37.1061205 20.5158853,37.1096972 20.6037864,37.1116926 L20.6843988,37.113191 C20.728994,37.1138307 20.7657813,37.1140332 20.7948524,37.1140332 L20.7957632,37.1140332 C20.9105311,37.1140332 21.0580899,37.1140332 21.266676,37.1051736 C21.5244484,37.1140332 21.672918,37.1140332 21.7421431,37.1140332 C21.7721936,37.1140332 21.809771,37.1138338 21.8544208,37.1132174 C21.9565194,37.1118038 22.0948011,37.108234 22.264328,37.0999408 C22.2967391,37.0983539 22.3299795,37.0966124 22.3643045,37.0946839 C22.4605382,37.0892776 22.5652574,37.0824042 22.6776948,37.073679 L22.6781689,37.073642 L22.8227951,37.0617291 C22.8569589,37.0587541 22.8917337,37.0556127 22.9271005,37.0522955 C23.0185535,37.0437206 23.114677,37.0338939 23.214481,37.0227144 C23.2730887,37.0161516 23.3327865,37.009142 23.3936782,37.0016363 C23.4754345,36.9915543 23.559321,36.9805847 23.6451952,36.9686429 C23.8596077,36.9388327 24.0862602,36.902983 24.3227466,36.8598647 C24.419555,36.8421983 24.5180538,36.8233195 24.6180275,36.803138 C24.791402,36.7681542 24.968583,36.7293813 25.1492666,36.6862867 L25.2697953,36.6569878 L25.4329881,36.6157154 C25.492706,36.6002431 25.5527435,36.5842924 25.6130696,36.5678485 L25.617,36.566 L25.6402902,36.5603649 L25.643,36.559 L25.639,36.56 L25.653,36.556 L25.7204515,36.5381381 L25.774358,36.5228887 L25.774358,36.5228887 L25.781,36.52 L25.8962438,36.4875248 L25.913,36.482 L26.010348,36.4533921 L26.049,36.441 L26.022,36.449 L26.117,36.42 L26.083,36.431 L26.1183913,36.4201561 L26.1249648,36.4180461 L26.14,36.413 L26.31,36.358 L26.406885,36.3265141 L26.3662499,36.3400705 C26.5861057,36.26677 26.8079979,36.1865494 27.0305666,36.0987579 L27.045,36.092 L27.128,36.059 L27.148,36.051 L27.2507714,36.0095697 L27.281,35.996 L27.3005541,35.9886076 L27.398,35.946 L27.467,35.916 L27.481,35.91 L27.492058,35.9059922 L27.564,35.873 L27.513,35.896 L27.6141595,35.8510687 L27.62,35.848 L27.6335964,35.8422975 L27.764,35.781 L27.9688677,35.6821053 C28.047499,35.6429822 28.1259752,35.6027926 28.2042356,35.5615073 L28.2543969,35.535 L28.282,35.519 L28.311,35.504 L28.326,35.496 L28.398,35.456 L28.417,35.445 L28.418,35.445 L28.419,35.444 L28.4625263,35.4208952 L28.4482108,35.4287895 C28.5920172,35.3481396 28.7348694,35.2636377 28.8763837,35.1751001 L28.878,35.174 L28.951,35.127 L28.97624,35.1118076 C29.0094478,35.0904842 29.0425761,35.0689341 29.0756201,35.0471549 L29.0926273,35.0361038 L29.173,34.981 L29.182,34.975 L29.201,34.962 L29.2109695,34.9565184 L29.282,34.907 L29.295,34.898 L29.3153123,34.8842293 L29.405,34.819 L29.419,34.809 L29.504,34.747 L29.5137487,34.7409739 L29.5209186,34.7354407 L29.536,34.723 L29.551,34.712 L29.587,34.685 L29.6261921,34.6560324 L29.636,34.648 L29.625,34.656 L29.66,34.629 L29.7330242,34.573233 L29.812,34.509 L29.774,34.539 L29.8569434,34.4737117 C29.9184075,34.4234597 29.9793912,34.3722527 30.0398566,34.3200726 L30.0580035,34.3041251 L30.131,34.239 L30.188875,34.1882738 L30.263,34.119 L30.223166,34.1573969 L30.272,34.111 L30.316,34.07 L30.3265979,34.0614545 L30.3558314,34.0335 L30.361,34.027 L30.447,33.944 L30.5265117,33.8667691 L30.5665766,33.825912 L30.635,33.754 L30.659,33.729 L30.681,33.706 L30.687,33.699 L30.705,33.68 L30.718,33.666 L30.73,33.653 L30.734,33.649 L30.743,33.639 L30.793,33.584 L30.819,33.556 L30.825,33.549 L30.828,33.546 L30.8414132,33.5319829 L30.8445909,33.5287123 L30.871,33.497 L30.902,33.462 L30.911,33.451 L30.923,33.438 L30.9299478,33.4310079 L30.93,33.43 L30.94,33.418 L30.966,33.387 L30.98,33.371 L31.016,33.328 L31.0259174,33.3177255 L31.055,33.281 L31.1,33.226 L31.115,33.208 L31.1165544,33.207151 L31.1203178,33.2021464 L31.121,33.201 L31.18,33.126 L31.194,33.108 L31.211,33.086 L31.235,33.055 L31.27,33.009 L31.282,32.993 L31.2840217,32.991381 L31.297,32.973 L31.301242,32.9680076 L31.324,32.936 L31.381996,32.8576161 L31.39,32.845 L31.384,32.854 L31.408,32.82 L31.418,32.806 L31.445,32.767 L31.438,32.778 L31.4463522,32.7671237 L31.4613225,32.7452844 L31.462,32.744 L31.546,32.62 L31.554,32.607 L31.551,32.613 L31.5563848,32.6051837 L31.571,32.582 L31.574,32.577 L31.577,32.573 L31.593,32.548 L31.6074509,32.5276105 L31.623,32.501 L31.624,32.501 L31.677,32.416 L31.6918138,32.394518 L31.71,32.363 L31.712,32.36 L31.735,32.322 L31.744,32.308 L31.748,32.3 L31.754,32.291 L31.756,32.287 L31.7683444,32.2686925 L31.775,32.256 L31.797,32.218 L31.844,32.138 L31.862,32.106 L31.916,32.009 L31.919,32.004 L31.921,32 L31.983,31.883 L31.934,31.978 L31.998,31.856 L32.001,31.85 L32.026,31.802 L32.055,31.745 L32.058,31.738 L32.0631564,31.7297821 L32.0683375,31.7190734 L32.068,31.718 L32.073,31.708 L32.078,31.699 L32.084,31.686 L32.132,31.587 L32.139,31.572 L32.1961126,31.4515164 L32.21,31.419 L32.22,31.397 L32.226,31.383 L32.252,31.325 L32.261,31.304 L32.2633394,31.3001875 L32.285,31.247 L32.3330794,31.1343808 L32.35,31.09 L32.359,31.068 L32.375,31.027 L32.4027048,30.9583193 C30.1602782,27.021986 25.9193307,24.5855774 21.2867148,24.5855774 Z M29.7564955,30.208897 C29.969636,30.3391341 30.032485,30.6128978 29.8985891,30.8193281 C28.7918986,32.5239281 26.8180727,33.6296146 24.747696,33.7066937 L24.7294789,33.7066937 C24.4853694,33.7066937 24.2840701,33.5188688 24.2740507,33.2814297 C24.2649421,33.0360169 24.4607762,32.8304726 24.7112618,32.820727 C26.4883427,32.7551654 28.1798031,31.806295 29.1280046,30.3471078 C29.2646331,30.1397916 29.5479094,30.0813178 29.7564955,30.208897 Z M48.6129543,15.9392507 C52.6853934,15.9392507 56,19.1659416 56,23.1333007 C56,27.094458 52.6853934,30.3184911 48.6129543,30.3184911 C48.1402198,30.3184911 47.6611094,30.2733068 47.1883749,30.186482 C45.7938537,30.0048588 44.4421427,29.9153762 43.139618,29.9153762 C42.2296724,29.9153762 40.8278644,29.9632184 39.320397,30.1909118 C39.2220245,30.2050873 39.1655514,30.2095171 39.1537103,30.2095171 C38.7155883,30.2095171 38.3585326,29.8560164 38.3585326,29.4210067 C38.3585326,29.1587606 38.5297736,28.962076 38.8704339,28.5678208 C39.5809019,27.7491875 41.0555785,26.0454734 41.217711,23.152792 C42.0766486,16.4575412 47.0954675,15.9392507 48.6129543,15.9392507 Z M27.4561297,2.97256438 L27.6677196,2.90490779 C25.4179042,3.57647059 23.5552028,5.42371127 22.9221576,7.61382108 C22.6288618,8.62736705 22.5669235,9.74368516 22.5077179,10.8245646 C22.4148105,12.491954 22.3200815,14.2160453 21.3919188,15.6964958 C20.2852282,17.4604556 18.274968,18.3756592 16.8594971,18.9090112 C16.3885844,19.0862046 15.9112956,19.2501084 15.433096,19.4131263 C14.1861335,19.8401623 13.0083961,20.2423912 11.9426941,20.8891469 C10.8517223,21.5496562 10.0070436,22.4761571 9.61586783,23.4361586 C9.60312106,23.7734046 9.58568792,24.1077144 9.56854683,24.4376209 C9.52573657,25.2535963 9.48201547,26.0979226 9.48201547,26.9254156 C9.48201547,27.9593796 9.59319599,28.9289283 9.81273984,29.8196756 C12.3056014,26.0194609 16.6096442,23.6996106 21.2867148,23.6996106 C25.9637855,23.6996106 30.267043,26.0164055 32.7599636,29.8102147 C32.9807171,28.9217731 33.0914142,27.9548616 33.0914142,26.9254156 C33.0914142,26.0970367 33.0486039,25.2535963 33.0057937,24.436735 C32.9638943,23.6127859 32.9192623,22.7622578 32.9192623,21.9188175 C32.9192623,15.551421 35.7847511,13.9731208 38.1961983,13.065823 L38.4722384,12.9638784 C38.609062,12.9141606 38.7439495,12.8661491 38.8762634,12.8190529 C40.7079957,12.1669814 41.6634841,11.751463 41.6634841,10.1443193 C41.6634841,9.20076473 40.9785201,8.1969644 39.9966168,7.70259495 C38.878996,7.1391201 37.6065295,7.12760253 36.2593729,7.11519899 C34.8703168,7.10368143 33.4320745,7.09039192 32.1277281,6.43654846 C31.3006705,6.02191602 30.4581283,5.33263389 29.5663998,4.60171131 C28.9214752,4.07311488 28.2259632,3.50334878 27.4561297,2.97256438 Z M48.6129543,16.8252174 C47.2840148,16.8252174 42.8882217,17.2868061 42.1240131,23.232529 C41.9482178,26.3901145 40.3405562,28.2462148 39.5672391,29.1383833 C39.5271614,29.1853396 39.4843512,29.2331818 39.4451843,29.280138 C40.9216826,29.0728218 42.2551764,29.0294094 43.139618,29.0294094 C44.4822204,29.0294094 45.8749199,29.12155 47.2794605,29.3031732 C47.7758773,29.3935418 48.1976038,29.4325243 48.6129543,29.4325243 C52.1844224,29.4325243 55.0891436,26.6071763 55.0891436,23.1333007 C55.0891436,19.6549952 52.1844224,16.8252174 48.6129543,16.8252174 Z M23.3942544,27.0992423 C23.8533261,27.0992423 24.2249555,27.4607167 24.2249555,27.9072439 C24.2249555,28.3537712 23.8533261,28.7152456 23.3942544,28.7152456 C22.9351828,28.7152456 22.5635534,28.3537712 22.5635534,27.9072439 C22.5635534,27.4607167 22.9351828,27.0992423 23.3942544,27.0992423 Z M19.1844582,27.0992423 C19.642619,27.0992423 20.0142484,27.4607167 20.0142484,27.9072439 C20.0142484,28.3537712 19.642619,28.7152456 19.1844582,28.7152456 C18.7253865,28.7152456 18.3537571,28.3537712 18.3537571,27.9072439 C18.3537571,27.4607167 18.7253865,27.0992423 19.1844582,27.0992423 Z M45.6801788,22.320692 C46.1392504,22.320692 46.5108799,22.6821664 46.5108799,23.1286937 C46.5108799,23.5752209 46.1392504,23.9366953 45.6801788,23.9366953 C45.2211071,23.9366953 44.8494777,23.5752209 44.8494777,23.1286937 C44.8494777,22.6821664 45.2211071,22.320692 45.6801788,22.320692 Z M48.777455,22.320692 C49.2365266,22.320692 49.6081561,22.6821664 49.6081561,23.1286937 C49.6081561,23.5752209 49.2365266,23.9366953 48.777455,23.9366953 C48.3183834,23.9366953 47.9467539,23.5752209 47.9467539,23.1286937 C47.9467539,22.6821664 48.3183834,22.320692 48.777455,22.320692 Z M51.8747312,22.320692 C52.3338029,22.320692 52.7054323,22.6821664 52.7054323,23.1286937 C52.7054323,23.5752209 52.3338029,23.9366953 51.8747312,23.9366953 C51.4156596,23.9366953 51.0440301,23.5752209 51.0440301,23.1286937 C51.0440301,22.6821664 51.4156596,22.320692 51.8747312,22.320692 Z M21.2867148,0.885966753 C17.5476492,0.885966753 15.0291311,2.94938332 13.0070299,4.60702712 C12.118034,5.33529179 11.2782244,6.02191602 10.4566318,6.43654846 C9.15046372,7.09039192 7.71222142,7.10368143 6.32134364,7.11519899 C4.97327612,7.12760253 3.70080969,7.1391201 2.58774313,7.70170898 C1.60037475,8.1996223 0.910856433,9.2043086 0.910856433,10.1443193 C0.910856433,11.751463 1.86634483,12.1669814 3.69807712,12.8190529 C6.18223793,13.702951 9.57202887,14.9092921 9.65445638,21.6656583 C10.1360637,21.0893287 10.7486859,20.5687455 11.4608511,20.1369611 C12.6112627,19.4397053 13.8928377,19.0020377 15.1316025,18.5776596 C15.5997827,18.4172997 16.0679629,18.2578257 16.5297671,18.0841762 C18.5837484,17.3089553 19.8817188,16.4034972 20.6149582,15.2349071 C21.421977,13.9458255 21.5075975,12.4060152 21.5977723,10.7767224 C21.6597105,9.64888671 21.7243813,8.4820685 22.0450028,7.37372409 C22.6762342,5.1915438 24.3886203,3.30972529 26.5278904,2.37807146 C25.0780435,1.52591049 23.3728228,0.885966753 21.2867148,0.885966753 Z M16.8527568,11.043487 C17.8200863,11.043487 18.6034229,11.8063044 18.6034229,12.7463151 C18.6034229,13.6872118 17.8200863,14.4491432 16.8527568,14.4491432 C15.8863381,14.4491432 15.1020907,13.6872118 15.1020907,12.7463151 C15.1020907,11.8063044 15.8863381,11.043487 16.8527568,11.043487 Z M25.7258647,11.043487 C26.6922834,11.043487 27.4765308,11.8063044 27.4765308,12.7463151 C27.4765308,13.6872118 26.6922834,14.4491432 25.7258647,14.4491432 C24.7585352,14.4491432 23.9751987,13.6872118 23.9751987,12.7463151 C23.9751987,11.8063044 24.7585352,11.043487 25.7258647,11.043487 Z" id="path-1"></path>
    </defs>
    <g id="Molecules" stroke="none" stroke-width="1" fill="none" fill-rule="evenodd">
        <g id="Molecules-/-Activities-/-Stats" transform="translate(-8.000000, -10.000000)">
            <g id="Icon" transform="translate(8.000000, 10.000000)">
                <mask id="mask-2" fill="white">
                    <use xlink:href="#path-1"></use>
                </mask>
                <use id="Combined-Shape" fill="currentColor" xlink:href="#path-1"></use>
                <g id="Atoms-/-Colors-/-Brand-/-Primary" mask="url(#mask-2)" fill-rule="nonzero">
                    <g transform="translate(-8.000000, -10.000000)" id="Rectangle">
                        <rect x="0" y="0" width="64" height="64"></rect>
                    </g>
                </g>
            </g>
        </g>
    </g>
</svg>