<?xml version="1.0" encoding="UTF-8"?>
<svg  width="64" height="64" viewBox="0 0 62 30" version="1.1" xmlns="http://www.w3.org/2000/svg" xmlns:xlink="http://www.w3.org/1999/xlink" id="score_teamwork">
    <defs>
        <path d="M20.1707859,1.26326902 C20.9406282,1.58551315 21.6043632,1.86330981 22.1755365,1.96553898 C23.0266524,2.11554917 23.8890564,1.86330981 24.804514,1.59662501 C25.8114044,1.30216055 26.8510302,0.997695416 27.9696719,1.19993138 C29.0996017,1.40216735 30.0647266,2.19999936 30.3728892,3.18895546 L30.374018,3.18895546 C30.8872044,4.84030227 29.9080973,5.72094436 28.9286676,6.46246229 L28.6943622,6.63807879 C28.5941999,6.71267645 28.4931496,6.78794576 28.3921773,6.86475658 L28.1906227,7.02069129 C26.8514343,8.07739472 25.6405792,9.51123703 26.8476438,13.3840929 C27.0271231,13.9619099 27.2370801,14.5319487 27.4470371,15.1030986 C27.6648957,15.6964723 27.8838831,16.2909571 28.0723928,16.8965538 C28.3860591,17.9023546 28.5402321,18.8782498 28.5331706,19.8019559 L28.5361043,19.8058627 L28.5276864,20.0412928 C28.5275596,20.0446001 28.5274307,20.0479068 28.5272996,20.0512127 C28.4978623,20.7980826 28.3623532,21.4786142 28.1487226,22.0974677 L28.0526171,22.3584842 C26.6071327,26.053012 22.3632007,27.4445954 21.8016776,27.6141712 C21.7206297,27.638395 21.6066208,27.6717306 21.4361718,27.7172893 C21.3377056,27.7522917 21.2429214,27.7829446 21.1815581,27.8016367 C21.1672215,27.8058109 21.1542106,27.8098054 21.1435866,27.8130736 C20.8817508,27.8920918 19.8740324,28.1733854 18.5450434,28.2578449 C18.5391818,28.2580048 18.5341024,28.2583241 18.5290184,28.2586405 L18.2896616,28.2713847 C18.2088733,28.2748116 18.1270578,28.277464 18.0443026,28.2792597 L17.793531,28.2817721 L17.793531,28.2817721 C15.9804119,28.2819943 13.7740825,27.8501048 12.0356183,26.1754826 L11.8287158,25.9682887 C11.6246631,25.7552482 11.427833,25.5238452 11.2397125,25.2726787 L11.222,25.248 L11.0927426,25.0762209 L11.094,25.068 L11.0440737,24.9992048 C10.5345184,24.2539263 10.1225757,23.381439 9.81855201,22.4035948 C9.63117105,21.8002204 9.47313891,21.1879566 9.31623557,20.5790263 C9.16497624,19.987875 9.01597451,19.3989461 8.83423755,18.8189067 C7.59933165,14.8534258 5.72203667,14.4032311 3.97595413,14.2797829 L3.72145633,14.2636797 L3.72145633,14.2636797 L3.46340243,14.2497072 C2.15286448,14.1808137 0.665104779,14.1019194 0.110863492,12.3195761 C-0.197299178,11.3339535 0.151500328,10.1394279 0.976653852,9.34381825 C1.78261776,8.56154285 2.81772827,8.23929873 3.82010355,7.92705528 C4.73217475,7.64259151 5.5923211,7.37479553 6.20977524,6.78253305 C6.62178761,6.38472823 7.01235275,5.78913219 7.46500195,5.10019648 C8.59606054,3.37674601 10.0025466,1.23104461 12.9351715,0.346540046 C15.8677965,-0.539075703 18.2540818,0.458769897 20.1707859,1.26326902 Z M18.4965483,18.2101987 C15.366717,19.1534955 13.0122065,21.668786 12.2996588,24.8063097 L12.1483973,24.6126338 C12.450617,25.0162528 12.7805085,25.3600432 13.1293883,25.651976 C13.1442686,25.6648803 13.1596788,25.6776436 13.1751252,25.6903071 L13.1293883,25.651976 C13.3498492,25.8364514 13.5778924,26.0002195 13.8113267,26.1452914 C13.9169624,26.211315 14.023746,26.2731578 14.1314311,26.3313575 C14.153629,26.3429828 14.1755673,26.3546672 14.1975412,26.3662024 L14.1314311,26.3313575 C14.1944979,26.3654428 14.257874,26.3982785 14.3215185,26.4299022 L14.1975412,26.3662024 C14.2690992,26.4037669 14.3410345,26.4397493 14.413288,26.4742036 L14.3215185,26.4299022 C14.3911952,26.4645231 14.4611936,26.4976913 14.5314601,26.5294558 L14.413288,26.4742036 C14.7576965,26.6384361 15.1093352,26.767951 15.4618076,26.8686197 C15.4914472,26.8775458 15.5213636,26.8858855 15.551282,26.8940211 L15.4618076,26.8686197 C15.526994,26.8872374 15.5922089,26.9048685 15.6574118,26.9215501 L15.551282,26.8940211 C15.6077059,26.9093643 15.6641373,26.9239816 15.72055,26.9378972 L15.6574118,26.9215501 C15.9394154,26.9936983 16.2211955,27.0480857 16.4994788,27.0877169 C16.5099654,27.0898139 16.520612,27.0913111 16.5312533,27.0927869 L16.4994788,27.0877169 C16.6348727,27.1069988 16.7694389,27.1227877 16.9028004,27.1354297 C16.9094303,27.1367268 16.9164152,27.137382 16.9233967,27.1380287 L16.9028004,27.1354297 C18.8077261,27.3160069 20.4668469,26.8545121 20.7814672,26.7594464 L20.796,26.754 L20.8467648,26.7399277 C20.9157099,26.7186242 20.9991001,26.6921641 21.1040786,26.6563283 L21.223,26.622 L21.446331,26.5583216 C21.603717,26.5108707 22.0619166,26.3638554 22.6588612,26.0920036 C22.6700553,26.0872286 22.6812456,26.0821088 22.6924832,26.0769454 L22.839313,26.0079321 C22.9314862,25.964014 23.0263491,25.9173063 23.123376,25.8677271 C23.1964971,25.8305822 23.2707666,25.7916152 23.3460391,25.750985 L23.5066346,25.6624171 C23.5888513,25.6162744 23.6720412,25.568187 23.7559266,25.5181115 C23.7956111,25.4945148 23.8352053,25.4705214 23.8749244,25.4460838 L24.0397659,25.3424714 C24.2449912,25.2108409 24.4524557,25.0673652 24.6582661,24.9114372 C25.0566198,24.6094225 25.4486088,24.2610156 25.8061893,23.8616 C25.8357228,23.8290462 25.8649099,23.795848 25.8938486,23.7623022 L25.8061893,23.8616 C25.9167206,23.7381372 26.0239642,23.6098006 26.1270869,23.4764606 C26.1505629,23.4466668 26.1734506,23.4165593 26.1961223,23.3861995 L26.1270869,23.4764606 C26.2275517,23.3465573 26.3241054,23.2119052 26.4159774,23.0723843 C26.4337349,23.0461418 26.4513425,23.0189656 26.4687693,22.9916061 L26.4159774,23.0723843 C26.5100462,22.9295273 26.5992067,22.7815661 26.6826321,22.6283718 C26.7029178,22.5920562 26.7224476,22.5553083 26.7416416,22.5182622 L26.6826321,22.6283718 C26.7655717,22.4760695 26.8428426,22.3185949 26.9136322,22.1558218 C26.9285333,22.1228025 26.9425387,22.0897799 26.9562743,22.056541 L26.9136322,22.1558218 C26.946924,22.0792708 26.9787823,22.0015479 27.0091226,21.92264 L26.9562743,22.056541 C26.9912457,21.9719129 27.0244677,21.8858823 27.0558303,21.7984322 L27.0091226,21.92264 C27.0751222,21.7509902 27.1339384,21.5737327 27.1847012,21.3907319 C27.1917132,21.3676263 27.197987,21.3444632 27.2041311,21.3212085 L27.1847012,21.3907319 C27.2334311,21.2150595 27.2747396,21.0340948 27.3078569,20.8477179 C27.3126692,20.8243284 27.3167055,20.800814 27.320611,20.7772137 L27.3078569,20.8477179 C27.341631,20.6576449 27.3668858,20.4619429 27.3828049,20.2604851 L27.3834713,20.2612107 L27.3835985,20.2503373 L27.3835985,20.2503373 C25.0086012,18.0479654 21.6267134,17.26569 18.4965483,18.2101987 Z M25.6640959,19.968207 C25.9654858,20.0493237 26.1415787,20.3549 26.0603051,20.6515868 C25.6415199,22.1639118 24.4461196,23.4239975 22.9425567,23.9406993 C22.8804727,23.9618118 22.8183886,23.9718125 22.7563046,23.9718125 C22.5226428,23.9718125 22.3047842,23.8284694 22.2235105,23.599565 C22.1207896,23.3095453 22.2754353,22.9928571 22.5700524,22.8917391 C23.7112702,22.5006014 24.653819,21.5049782 24.9710121,20.3582335 C25.0534146,20.0637691 25.3649637,19.890424 25.6640959,19.968207 Z M18.0238938,1.61862404 L17.8669173,1.74106554 C16.7228873,2.68047923 16.0248557,4.15179869 16.0595798,5.60856437 C16.0776406,6.36528247 16.268408,7.12311175 16.4704634,7.9253885 C16.7808836,9.15436093 17.1014631,10.4233361 16.7639516,11.7234244 C16.3620985,13.274641 15.1181598,14.3836052 14.2173766,15.0825416 C13.9238883,15.3092237 13.6247561,15.5270163 13.3233662,15.7459201 C12.5557815,16.3037357 11.8288337,16.8304382 11.2407284,17.496039 C10.6650399,18.1486086 10.2999812,18.9214372 10.2330356,19.6282694 C10.2951209,19.8529124 10.3530682,20.0793707 10.4111725,20.3056744 C10.5635607,20.8990481 10.71482,21.4924218 10.8976858,22.0780171 C11.0613438,22.6048875 11.2585266,23.0949113 11.4873117,23.5441314 C12.5283894,20.4960824 14.9930898,18.1037401 18.1658096,17.1456819 C21.3399015,16.1894624 24.7398813,16.810389 27.3369429,18.7564057 C27.2719776,18.25999 27.1568458,17.7469831 26.9932591,17.2221315 C26.8103933,16.635425 26.5981787,16.0576079 26.3848353,15.4820132 C26.1692344,14.8930843 25.9536334,14.3063778 25.7673812,13.7096705 C24.1791582,8.61043507 26.3949946,6.95810054 28.0136952,5.75135185 C29.1255642,4.92240662 29.6041758,4.51348994 29.2937555,3.51453315 C29.1120185,2.93338254 28.4697308,2.41890312 27.7676166,2.29333903 C26.9119854,2.13999528 26.0461951,2.39223465 25.1250934,2.662253 C24.1215894,2.95227271 23.0842213,3.25118192 21.9746099,3.05894663 C21.2792685,2.93560491 20.5263582,2.61891672 19.7294247,2.28556073 C19.1840463,2.05702907 18.617428,1.81961591 18.0238938,1.61862404 Z M18.2709009,20.6154733 C18.3691066,20.9321614 18.1884985,21.2666286 17.867919,21.364413 C17.5450819,21.4610863 17.2064416,21.2832964 17.1071071,20.9666082 C17.0089014,20.64992 17.1895096,20.3143417 17.5100891,20.2187796 C17.8317974,20.1221064 18.1726953,20.2998963 18.2709009,20.6154733 Z M20.4596461,19.3282747 C20.7813544,19.2316014 21.1211234,19.4093913 21.2193291,19.7260795 C21.3186636,20.0427677 21.1380555,20.3772348 20.8163472,20.4739081 C20.4957677,20.5705813 20.1548698,20.3927915 20.0566641,20.0772144 C19.9573296,19.7605263 20.1379378,19.4249479 20.4596461,19.3282747 Z M15.2537288,1.11214764 C14.622729,1.11214764 13.9612516,1.1988202 13.2659102,1.40994566 C10.726108,2.17555325 9.49684373,4.05012511 8.41319478,5.70245964 C7.94361357,6.41695264 7.50225238,7.09255412 6.99880714,7.57703149 C6.18832803,8.35486214 5.15773272,8.67599508 4.16100145,8.98601615 C3.24554384,9.27159112 2.38313989,9.54049828 1.76681455,10.1372055 C1.25095249,10.6339059 1.00938908,11.413959 1.18886844,11.9939984 C1.50041751,12.991844 2.13028846,13.0674047 3.52322889,13.1396318 C5.450155,13.2421361 8.0549597,13.3798143 9.672578,17.7789189 C9.86586255,17.4283412 10.1071097,17.0870759 10.3907412,16.7659894 C11.0589914,16.0092713 11.8694705,15.4203424 12.6528584,14.8514148 C12.9440891,14.6402894 13.2353197,14.4291639 13.5186488,14.2102601 C14.7445267,13.2579732 15.4285801,12.3801357 15.6701435,11.4478501 C15.9376693,10.4200025 15.6644995,9.33881791 15.3755264,8.19429567 C15.1666982,7.36757281 14.9510972,6.51418148 14.9307788,5.63523285 C14.8923473,4.03188313 15.5763841,2.41466 16.7285453,1.26537275 C16.2561778,1.16923583 15.7647764,1.11214764 15.2537288,1.11214764 Z M13.936418,10.166652 C14.1441174,10.8333639 13.7625827,11.5389674 13.0853021,11.7434258 C12.4080215,11.9478841 11.6912329,11.5734142 11.4835335,10.9067023 C11.2769629,10.2388791 11.65624,9.53438676 12.3335206,9.32881723 C13.01193,9.12547007 13.7275898,9.49993997 13.936418,10.166652 Z M18.5498277,7.45368978 C19.2271083,7.24923144 19.9427681,7.62370133 20.1515963,8.2915245 C20.3581669,8.95823648 19.9788897,9.66384 19.3004803,9.86829834 C18.6231997,10.0727567 17.9064111,9.69828678 17.6987117,9.0315748 C17.4910123,8.36375163 17.8714183,7.65925931 18.5498277,7.45368978 Z M49.6309114,1.45761556 C49.8239364,1.34316334 50.075659,1.40650098 50.1919255,1.59762508 C50.2190167,1.64318373 50.2370776,1.69318713 50.2449792,1.74319053 C50.2923888,2.04321092 50.3951097,2.33989775 50.5599146,2.60547136 C50.6016803,2.67658731 50.6536051,2.74436969 50.7010148,2.81326326 C51.0385263,2.50768694 51.4245762,2.26655944 51.8309446,2.09877025 C52.4596867,1.83875258 53.1279369,1.71541086 53.7950583,1.69318713 L53.7950583,1.69318713 L53.8074751,1.69318713 C54.0535537,1.68429764 54.2589955,1.87319937 54.2680259,2.11543805 C54.2725411,2.24211333 54.2217451,2.35767674 54.1382138,2.43990455 C53.7690959,2.80659614 53.5230172,3.25996029 53.3593411,3.73443698 C53.5828437,3.72110274 53.8007023,3.72554749 54.0072729,3.74332648 C54.5118469,3.79221869 54.9848145,3.88555837 55.4419789,3.94334007 C55.6982168,3.97556448 55.8776961,4.2066913 55.8438321,4.45781948 C55.8314153,4.56338222 55.7828768,4.65561071 55.7106336,4.72450428 C55.2275067,5.19898097 54.6924551,5.60456409 54.2770563,6.03125976 C54.0213195,6.29170987 53.90861,6.67681832 53.8085464,7.04000735 C54.44312,7.7519396 54.930141,8.51849191 55.3697357,9.21047585 C55.7670736,9.83496274 56.1102291,10.3738883 56.473703,10.7339127 C57.0110123,11.2661711 57.772953,11.5150769 58.5811745,11.7806505 C59.4819577,12.075115 60.4132185,12.3806913 61.1424239,13.105185 C61.8829174,13.8407906 62.1831784,14.9408653 61.8874326,15.8442601 C61.395185,17.3460066 60.2064384,17.5094097 59.0876665,17.561419 L58.7979043,17.5732665 C57.0414899,17.6410489 55.2275067,17.7099424 53.960992,21.5702048 C53.7916719,22.0880178 53.649443,22.6147203 53.5060852,23.1403115 C53.3570835,23.6892377 53.206953,24.2381639 53.0297312,24.7793118 C52.7358058,25.6775729 52.3415305,26.4733913 51.8570214,27.1468506 L51.8570199,27.154251 L51.7068893,27.3487087 C51.5294626,27.5794982 51.3440375,27.7914069 51.1520433,27.9858161 C49.8947841,29.2599212 48.3551239,29.7820935 46.9350602,29.9417683 C46.7244542,29.9656383 46.5163987,29.9813978 46.312296,29.9904404 C46.1652012,29.9966597 46.0201546,29.9996666 45.8776481,29.9996666 L45.8766322,30 C44.2861516,30 43.0117353,29.6255301 42.7374367,29.5377464 C42.7177832,29.5315054 42.6955481,29.5243882 42.6703816,29.5161979 C42.6063013,29.4954299 42.5220755,29.4668527 42.4133579,29.4285167 C42.3230538,29.406293 42.2271057,29.3762909 42.1717945,29.358512 C42.1141115,29.3401758 42.0201886,29.3091931 41.8968201,29.2645126 C41.5196078,29.1280833 40.8692224,28.8641094 40.137815,28.4428802 C38.6826809,27.6051016 36.906547,26.1446383 36.3279817,23.8266174 C36.2551084,23.5342852 36.201194,23.2283572 36.1693735,22.9083279 C36.1531971,22.7465118 36.142764,22.5813264 36.1383532,22.4124843 L36.138,22.397 L36.1316933,22.1683566 L36.138,22.161 L36.1380842,22.0715193 C36.1565727,21.2699587 36.3088021,20.4273494 36.59326,19.5600682 C36.7693529,19.0200315 36.9736659,18.4911066 37.1768501,17.9621818 C37.3743903,17.4499248 37.5708016,16.9387789 37.7412506,16.4198548 C38.9130011,12.8430805 37.7701871,11.6354328 36.4939629,10.6303303 L36.2916632,10.4729972 C36.2578678,10.4469503 36.2240595,10.4209646 36.190278,10.3950008 C35.2454716,9.66939593 34.1753683,8.84600663 34.7104199,7.21367346 C35.005037,6.31361229 35.9035626,5.59245216 36.9465747,5.42132942 C37.965882,5.25465142 38.9027868,5.54022639 39.8080852,5.81913423 C40.6208219,6.06915123 41.3838914,6.30583398 42.1424457,6.18360345 C42.6458909,6.10026445 43.2418978,5.86024814 43.9338528,5.58245148 C45.0242123,5.14392532 46.2815634,4.63737747 47.7192247,4.52660553 C47.7965457,3.23997624 48.5612997,2.08511547 49.6207522,1.46428268 L49.6207522,1.46428268 Z M37.2795433,22.6275036 L37.28,22.647 L37.2931062,22.7978006 C37.2975267,22.8418353 37.3024564,22.8855594 37.3078837,22.9289744 C37.3112237,22.9567634 37.3149889,22.9850342 37.3189638,23.0131732 L37.3078837,22.9289744 C37.3692369,23.4197581 37.4941887,23.8710408 37.6661799,24.2851179 C37.7556694,24.5002461 37.8576697,24.705168 37.9700272,24.9003833 C38.0243398,24.9950753 38.0807923,25.0867396 38.1393839,25.1761933 C38.1697518,25.2221793 38.2004976,25.2676571 38.2317754,25.3125534 L38.1393839,25.1761933 C38.2234005,25.3044638 38.3118155,25.428189 38.4038685,25.5474742 C38.4889727,25.6573398 38.5770078,25.76361 38.6675412,25.8661838 C38.6858215,25.8873133 38.7044321,25.9081293 38.723142,25.9287914 L38.6675412,25.8661838 C38.7161529,25.9212605 38.765485,25.9752715 38.8154449,26.0282296 L38.723142,25.9287914 C38.7795901,25.9911294 38.8369426,26.0520676 38.8950592,26.1116255 L38.8154449,26.0282296 C38.8689472,26.0849427 38.9231695,26.1404484 38.9779983,26.1947623 L38.8950592,26.1116255 C38.9588066,26.1769538 39.0234734,26.2406213 39.0888747,26.3026537 L38.9779983,26.1947623 C39.0337228,26.2499634 39.0900737,26.3039337 39.1469319,26.3566895 L39.0888747,26.3026537 C39.1336171,26.3450914 39.1787033,26.3867637 39.2240739,26.427679 L39.1469319,26.3566895 C39.2080664,26.413413 39.2697872,26.4687326 39.3319463,26.5226689 L39.2240739,26.427679 C39.2672389,26.4666052 39.3106613,26.5048462 39.3542903,26.5424089 L39.3319463,26.5226689 C39.4447488,26.6205491 39.5589944,26.7138736 39.6737975,26.8027654 C39.6978595,26.8218187 39.7221167,26.8403845 39.7463904,26.8587539 L39.6737975,26.8027654 C39.7295912,26.8459663 39.7855166,26.8881203 39.841472,26.9292414 L39.7463904,26.8587539 C39.8075735,26.905055 39.8688616,26.9501083 39.9301214,26.9939324 L39.841472,26.9292414 C39.8912401,26.9658155 39.9410319,27.0015725 39.9907759,27.0365224 L39.9301214,26.9939324 C39.9849673,27.0331682 40.0397906,27.0714186 40.0944953,27.108697 L39.9907759,27.0365224 C40.1760714,27.1667102 40.3607037,27.2856987 40.5409757,27.3940015 C40.559467,27.4054821 40.5782084,27.416653 40.5968982,27.4277084 L40.5409757,27.3940015 C40.5896933,27.4232697 40.6380924,27.4517575 40.6861001,27.4794751 L40.5968982,27.4277084 C40.6608999,27.4655663 40.7242972,27.5020695 40.7869222,27.537241 L40.6861001,27.4794751 C40.7283553,27.5038714 40.7703073,27.5276711 40.8119063,27.5508808 L40.7869222,27.537241 C40.88637,27.593093 40.98387,27.6455871 41.0787492,27.6948168 C41.3255435,27.8226028 41.5547079,27.9286609 41.7542679,28.0142705 C41.8114243,28.0389308 41.8655941,28.0615244 41.9171135,28.0825113 C41.9825679,28.109094 42.0439524,28.1332713 42.1004717,28.1549171 C42.2755522,28.2218964 42.4036187,28.2644536 42.4686691,28.2851057 L43.0579033,28.471785 C43.0776069,28.4780496 43.102671,28.4858569 43.132803,28.4949305 C43.1541571,28.50166 43.1787656,28.5089378 43.2059538,28.5167833 C43.2843902,28.5390964 43.3834241,28.5661954 43.5009272,28.5954199 C43.5164128,28.5996375 43.5324454,28.6035851 43.5488016,28.6075649 L43.5009272,28.5954199 C43.7212341,28.650213 44.0064654,28.712478 44.3391171,28.7656774 C44.4175261,28.7788126 44.4986297,28.7908777 44.5821419,28.8022215 C46.0822415,29.0049769 48.3594976,28.9756043 50.0825461,27.4556009 C50.281304,27.280142 50.4722015,27.0852533 50.653718,26.8686761 C50.0509383,24.0751529 47.9874901,21.8149992 45.2162836,20.9349394 C42.4455019,20.0572365 39.428717,20.7047253 37.2795433,22.6275036 Z M45.5997373,25.4072434 C46.1923579,25.5950339 46.5174525,26.220632 46.3266852,26.8028938 C46.134789,27.3862668 45.5004028,27.7062885 44.9077823,27.518498 C44.3162906,27.3307075 43.9911959,26.7051094 44.1819633,26.1228476 C44.3738595,25.5394746 45.0082456,25.2194528 45.5997373,25.4072434 Z M53.5308668,8.48013376 L53.3117949,8.50117143 C52.0230107,8.65549986 50.7823888,9.33505222 50.0679832,10.3938896 C49.6909636,10.9539277 49.4369834,11.6050831 49.1683288,12.2962411 C48.75293,13.3640915 48.3228568,14.4708334 47.3825656,15.2675542 C46.2650526,16.2176188 44.7558457,16.4065205 43.7184776,16.4654134 C43.3843525,16.4854148 43.0490986,16.4943043 42.7149735,16.5020826 C41.8593424,16.5243063 41.0499921,16.5454188 40.2745058,16.7365429 C39.5258105,16.9199961 38.8665559,17.294896 38.4544681,17.7688698 C38.3829552,17.9655161 38.307694,18.1610089 38.232279,18.3566531 C38.0358677,18.8677989 37.8383275,19.3789448 37.6667497,19.9000913 C37.5281763,20.3228037 37.4252157,20.737406 37.3582548,21.1409782 C39.717372,19.4738401 42.7521317,18.9846246 45.5628255,19.8770897 C48.3744046,20.7685641 50.5468032,22.9084637 51.4734273,25.613944 C51.6566551,25.2514584 51.8182991,24.8584282 51.9562415,24.4381775 C52.1278192,23.9148086 52.2711769,23.3836614 52.4156635,22.8536254 C52.5635364,22.3091439 52.7125381,21.7646625 52.8875023,21.2290705 C54.3944516,16.6309802 56.9139354,16.534307 58.753881,16.463191 C59.9786301,16.4165212 60.5328714,16.3598507 60.8139428,15.5031258 C60.977619,15.0019806 60.7778212,14.3219344 60.3409752,13.8874604 C59.8014084,13.3518684 59.0360813,13.0996291 58.2256022,12.8351667 C57.3282054,12.5407022 56.400331,12.2362371 55.6733831,11.5172993 C55.2207339,11.0694911 54.8279112,10.4527825 54.4136412,9.79940477 C54.1385725,9.36693711 53.8529341,8.9175968 53.5308668,8.48013376 Z M45.4072768,23.046194 C45.4998384,22.7628414 45.8080011,22.6072753 46.0947166,22.6995038 C46.3825608,22.7906211 46.540593,23.0939751 46.4480313,23.3773276 C46.3554696,23.6606802 46.0461781,23.8151352 45.7594627,23.7240179 C45.4727472,23.6329006 45.3147151,23.3295466 45.4072768,23.046194 Z M43.4578375,21.861558 C43.7445529,21.9537864 43.902585,22.2560292 43.8100234,22.5393818 C43.7174617,22.8227344 43.409299,22.9783005 43.1225836,22.886072 C42.8347393,22.7949547 42.6767072,22.4916008 42.7692688,22.2082482 C42.8618305,21.9248956 43.1699932,21.7704406 43.4578375,21.861558 Z M44.3605396,6.61141031 C43.638107,6.90254121 42.9563112,7.17589312 42.3264402,7.28034466 C41.3127769,7.44591147 40.3758721,7.15811413 39.4717025,6.87920629 C38.8124827,6.67697032 38.1803542,6.48251266 37.5662864,6.48251266 C37.4206711,6.48251266 37.2773134,6.49362452 37.1339557,6.51695944 C36.5142439,6.61918861 35.9475858,7.05588496 35.7839097,7.55480776 C35.5028382,8.41153266 35.918237,8.77600188 36.8856194,9.51938574 C38.2520412,10.5703428 40.0942795,11.9871385 39.0425661,15.9917569 C39.3409409,15.8537663 39.6629868,15.7411217 40.0013359,15.6575807 C40.8964751,15.4375658 41.8062887,15.4131197 42.6856247,15.3920071 C43.0084618,15.3831176 43.3312989,15.3753393 43.6530071,15.3564491 C45.0414324,15.2764437 45.9930116,14.9808681 46.6465874,14.4252747 C47.3701488,13.8118997 47.7324939,12.8829477 48.1151575,11.8984363 C48.3939713,11.1828321 48.6806868,10.4416706 49.1276919,9.77940341 C49.9311017,8.5886806 51.2345206,7.75273928 52.6741479,7.46595766 C52.0221493,6.81012653 51.2160015,6.24719752 50.1411295,5.90580679 C47.8925579,5.19242497 46.0142331,5.94469832 44.3605396,6.61141031 Z M49.4418373,13.7140042 C49.6371198,13.1172969 50.2861804,12.7906081 50.8923465,12.9828434 C51.4973839,13.1750787 51.8303802,13.814011 51.6350976,14.4107182 C51.4409438,15.0063142 50.7896256,15.3341143 50.1845883,15.141879 C49.5784222,14.9496437 49.2465547,14.3096002 49.4418373,13.7140042 Z M45.3325501,11.2171678 C45.9387163,11.4094031 46.2717126,12.0494466 46.07643,12.6450426 C45.8800186,13.2417499 45.230958,13.5684387 44.6259207,13.3762034 C44.0197546,13.1839681 43.6867583,12.5450358 43.8831697,11.9483286 C44.0773234,11.3527326 44.7275128,11.0249325 45.3325501,11.2171678 Z M49.6004338,2.51324287 C49.3408096,2.75548156 49.1195646,3.0343894 48.9807221,3.35107759 C48.8040124,3.72383221 48.7387372,4.13161007 48.7771311,4.52294182 C49.3237218,4.55842287 49.8930642,4.66064321 50.4865426,4.8490683 C51.4713249,5.16172955 52.2614291,5.62847269 52.9167415,6.17218468 C53.103141,5.8469429 53.3467561,5.58202661 53.5873589,5.35565829 C53.8108615,5.15008876 54.0298489,4.96674296 54.2443211,4.78673073 C53.7081406,4.78228598 53.2080818,4.82673345 52.8423502,4.95674229 L52.8423502,4.95674229 L52.7847814,4.97785483 C52.5025811,5.07786163 52.1910321,4.93451855 52.0883112,4.65672189 C52.0544472,4.56227103 52.0476743,4.46337542 52.0657352,4.37225811 C52.1741001,3.81888717 52.4077619,3.31440844 52.7001213,2.84993242 C52.0578336,3.10439416 51.4877891,3.50997728 51.1062543,3.99445466 L51.1062543,3.99445466 L51.0757767,4.03334619 C50.8951685,4.26225064 50.5599146,4.30447573 50.3262528,4.12557468 C50.274328,4.08668315 50.2314336,4.03779094 50.1975695,3.98556516 C49.9221421,3.54331288 49.7426627,3.0343894 49.6004338,2.51324287 Z" id="path-1"></path>
    </defs>
    <g id="Molecules" stroke="none" stroke-width="1" fill="none" fill-rule="evenodd">
        <g id="Molecules-/-Activities-/-Stats" transform="translate(-2.000000, -18.000000)">
            <g id="Icon" transform="translate(2.000000, 18.000000)">
                <mask id="mask-2" fill="white">
                    <use xlink:href="#path-1"></use>
                </mask>
                <use id="Combined-Shape" fill="#000" xlink:href="#path-1"></use>
                <g id="Atoms-/-Colors-/-Brand-/-Primary" mask="url(#mask-2)" fill-rule="nonzero">
                    <g transform="translate(-2.000000, -18.000000)" id="Rectangle">
                        <rect x="0" y="0" width="64" height="64"></rect>
                    </g>
                </g>
            </g>
        </g>
    </g>
</svg>