<svg xmlns="http://www.w3.org/2000/svg" viewBox="0 0 1481.559 372.02">
    <path d="M507.366,130.238q2.807,0,6.63.385t7.71.954q3.888.577,7.521,1.468t6.308,1.782v30.591h-11.98a25.73,25.73,0,0,0-7.137.829,10.356,10.356,0,0,0-4.463,2.484,9.312,9.312,0,0,0-2.355,4.334,24.7,24.7,0,0,0-.7,6.246v5.48h26.638V219.97H508.9v102.6H456.879l.143-102.6H437.65V184.791h19.372v-5.736q0-14.144,3.694-23.513a36.912,36.912,0,0,1,10.328-14.98,39.213,39.213,0,0,1,15.929-7.964A82.924,82.924,0,0,1,507.366,130.238Z"
          transform="translate(-2.22 -52.99)" fill="#ffffff"/>
    <path d="M616.936,181.607a159.237,159.237,0,0,1,27.086,2.23,76.223,76.223,0,0,1,22.815,7.454,42.455,42.455,0,0,1,15.678,13.83q5.8,8.6,5.8,21.35v53.787a12.684,12.684,0,0,0,1.978,7.266q1.975,2.934,6.308,2.932h9.433v30.077a36.5,36.5,0,0,1-7.011,2.677A64.3,64.3,0,0,1,690.48,325a78.739,78.739,0,0,1-11.6.766q-15.808,0-25.3-4.719t-13.063-12.616a95.291,95.291,0,0,1-9.43,6.563,70.419,70.419,0,0,1-11.344,5.543,77.659,77.659,0,0,1-13.7,3.827,89.788,89.788,0,0,1-16.5,1.4,91.757,91.757,0,0,1-19.694-1.979,40.98,40.98,0,0,1-15.36-6.563,31.15,31.15,0,0,1-9.939-11.981q-3.571-7.387-3.568-18.226,0-15.418,6.434-25.044t18.673-14.976q12.236-5.358,29.951-7.2a392.209,392.209,0,0,1,40.279-1.849v-6.755a15.954,15.954,0,0,0-1.593-7.329,14.344,14.344,0,0,0-4.271-5.1,19.267,19.267,0,0,0-6.371-3,29.62,29.62,0,0,0-7.9-1.02,42.657,42.657,0,0,0-6.948.573,22.868,22.868,0,0,0-6.371,1.974,13.052,13.052,0,0,0-4.656,3.7,9.041,9.041,0,0,0-1.782,5.735v1.146H545.179a7.675,7.675,0,0,1-.255-1.848v-1.846a33.83,33.83,0,0,1,4.589-17.4,39.2,39.2,0,0,1,13.7-13.445q9.108-5.607,22.56-8.667A141.373,141.373,0,0,1,616.936,181.607Zm19.376,80.935a125.233,125.233,0,0,0-19.819,1.339,54.434,54.434,0,0,0-13.449,3.694,19.07,19.07,0,0,0-7.647,5.609,11.586,11.586,0,0,0-2.422,7.074,12.759,12.759,0,0,0,1.531,6.63,10.881,10.881,0,0,0,4.016,3.949,17.849,17.849,0,0,0,5.672,1.974,36.339,36.339,0,0,0,6.5.573,33.123,33.123,0,0,0,9.625-1.4,27.707,27.707,0,0,0,8.22-3.949,20.158,20.158,0,0,0,5.672-6.057,14.7,14.7,0,0,0,2.1-7.71Z"
          transform="translate(-2.22 -52.99)" fill="#ffffff"/>
    <path d="M803.145,181.352a36.7,36.7,0,0,1,6.5.51,41.19,41.19,0,0,1,4.844,1.146,23.106,23.106,0,0,1,4.079,1.527v43.593H801.873a40.4,40.4,0,0,0-14.277,2.229,22.908,22.908,0,0,0-9.5,6.5,25.766,25.766,0,0,0-5.224,10.453,55.905,55.905,0,0,0-1.594,13.955v61.308H719.407V184.791h42.571l3.314,20.777a37.164,37.164,0,0,1,15.23-18.289,38.565,38.565,0,0,1,10.7-4.463A48.514,48.514,0,0,1,803.145,181.352Z"
          transform="translate(-2.22 -52.99)" fill="#ffffff"/>
    <path d="M1012.449,181.607a56.085,56.085,0,0,1,20.711,3.5,37.388,37.388,0,0,1,14.658,10.132,42.89,42.89,0,0,1,8.667,16.251,76.532,76.532,0,0,1,2.869,21.857v89.222h-51.875V239.6q0-8.664-4.208-14.148t-12.235-5.48a20.59,20.59,0,0,0-8.538,1.72,19.124,19.124,0,0,0-6.5,4.718,21.54,21.54,0,0,0-4.145,6.944,23.681,23.681,0,0,0-1.464,8.287v80.935h-52V239.6q0-8.664-4.2-14.148t-12.235-5.48a20.605,20.605,0,0,0-8.542,1.72,19.137,19.137,0,0,0-6.5,4.718,21.54,21.54,0,0,0-4.145,6.944,23.681,23.681,0,0,0-1.464,8.287v80.935H829.421V184.791h42.571l3.313,20.522a53.3,53.3,0,0,1,9.241-9.877,57.589,57.589,0,0,1,11.533-7.458,63.436,63.436,0,0,1,13.193-4.715,60.472,60.472,0,0,1,14.085-1.656q15.93,0,26.32,6.179a38.018,38.018,0,0,1,15.486,17.527,55.539,55.539,0,0,1,9.241-9.751,59.007,59.007,0,0,1,11.407-7.455,63.922,63.922,0,0,1,12.872-4.781A55.6,55.6,0,0,1,1012.449,181.607Z"
          transform="translate(-2.22 -52.99)" fill="#ffffff"/>
    <path d="M1144.446,130.238q2.807,0,6.63.385t7.709.954q3.889.577,7.522,1.468t6.308,1.782v30.591h-11.981a25.722,25.722,0,0,0-7.136.829,10.35,10.35,0,0,0-4.463,2.484,9.313,9.313,0,0,0-2.356,4.334,24.744,24.744,0,0,0-.7,6.246v5.48h26.638V219.97h-26.638v102.6H1094.1V219.97h-19.373V184.791H1094.1v-5.736q0-14.144,3.694-23.513a36.92,36.92,0,0,1,10.327-14.98,39.217,39.217,0,0,1,15.93-7.964A82.918,82.918,0,0,1,1144.446,130.238Z"
          transform="translate(-2.22 -52.99)" fill="#bccf27"/>
    <path d="M1327.175,322.574H1284.6l-3.313-20.9a54.753,54.753,0,0,1-9.5,10.069A59.962,59.962,0,0,1,1260,319.324a63.463,63.463,0,0,1-27.784,6.438,58.826,58.826,0,0,1-21.288-3.506,38.21,38.21,0,0,1-14.975-10.135,42.567,42.567,0,0,1-8.856-16.248,74.946,74.946,0,0,1-2.933-21.861V184.791h51.875v82.976q0,8.668,4.4,14.147t13.193,5.48a22.256,22.256,0,0,0,8.856-1.719,20.661,20.661,0,0,0,6.885-4.715,20.927,20.927,0,0,0,4.4-6.885,22.547,22.547,0,0,0,1.531-8.346V184.791h51.875Z"
          transform="translate(-2.22 -52.99)" fill="#bccf27"/>
    <path d="M1435.728,181.607a58.8,58.8,0,0,1,21.284,3.5,38.225,38.225,0,0,1,14.976,10.132,42.635,42.635,0,0,1,8.859,16.251,75.024,75.024,0,0,1,2.933,21.857v89.222H1431.9V239.6q0-8.664-4.4-14.148t-13.189-5.48a22.276,22.276,0,0,0-8.86,1.72,20.6,20.6,0,0,0-11.282,11.662,22.831,22.831,0,0,0-1.527,8.287v80.935h-51.875V184.791h42.572l3.313,20.777a50.349,50.349,0,0,1,9.433-9.877,63.389,63.389,0,0,1,11.851-7.521,65.743,65.743,0,0,1,13.448-4.844A60.509,60.509,0,0,1,1435.728,181.607Z"
          transform="translate(-2.22 -52.99)" fill="#bccf27"/>
    <path d="M188.23,425.01C85.664,425.01,2.22,341.566,2.22,239S85.664,52.99,188.23,52.99,374.24,136.434,374.24,239,290.8,425.01,188.23,425.01Zm0-358.143C93.316,66.867,16.1,144.085,16.1,239S93.316,411.133,188.23,411.133,360.364,333.915,360.364,239,283.145,66.867,188.23,66.867Z"
          transform="translate(-2.22 -52.99)" fill="#bccf27"/>
    <path d="M123.748,155.126a5.883,5.883,0,0,1-5.757-5.1,23.23,23.23,0,0,0-23.012-20.062h0v25.119c0,.014,0,.029,0,.043h0a23.3,23.3,0,0,0,23.3,23.3h20.406a20.677,20.677,0,0,1,20.677,20.678v36.8H130.324A11.916,11.916,0,0,0,118.3,246.791a11.653,11.653,0,0,0,11.626,12.427H145.7a13.665,13.665,0,0,1,13.666,13.666v48.547a17.02,17.02,0,0,1-17.02,17.02h0a23.227,23.227,0,0,0,23.227,23.226h45.414a23.226,23.226,0,0,0,23.226-23.226h0a16.3,16.3,0,0,1-16.3-16.3V272.884a13.666,13.666,0,0,1,13.667-13.666h14.666a11.917,11.917,0,0,0,12.026-10.876,11.652,11.652,0,0,0-11.626-12.428H217.914v-36.8a20.678,20.678,0,0,1,20.678-20.678h19.586a23.3,23.3,0,0,0,23.3-23.3h0c0-.014,0-.029,0-.043V129.965a23.231,23.231,0,0,0-23.011,20.05,5.9,5.9,0,0,1-5.765,5.111H235.957a42.9,42.9,0,0,0-42.9,42.9V313.691h-8.833V198.027a42.9,42.9,0,0,0-42.9-42.9H123.748Z"
          transform="translate(-2.22 -52.99)" fill="#ffffff"/>
</svg>
