<svg xmlns="http://www.w3.org/2000/svg" width="671" height="115" viewBox="0 0 1138.1 194.6">
  <g opacity=".6">
    <path fill="none" stroke="#52777f" stroke-width="2.6" d="M973.7 193.1h163V81.5l-81.5-40.4-81.5 40.4v111.6z"/>
    <path fill="none" stroke="#52777f" stroke-width="2.6" d="M1136.8 81V67.6l-81.5-39.9-81.6 39.9v13.2M1074.3 193.1h-38.1a1.4 1.4 0 0 1-1.4-1.5v-59a1.4 1.4 0 0 1 1.4-1.5h38.1a1.5 1.5 0 0 1 1.4 1.5v59a1.5 1.5 0 0 1-1.4 1.5zM1034.8 131.1l41 61M1075.7 131.1l-41 61"/>
    <path d="M1055.3 76.6a7.6 7.6 0 0 0-7.6 7.6v15.2h15.2V84.2a7.6 7.6 0 0 0-7.7-7.6zM988.9 193.3h-68.3V35.9a34.1 34.1 0 1 1 68.3 0V61" fill="none" stroke="#52777f" stroke-width="2.6"/>
    <path d="M71.4 65.6v126.2" fill="none" stroke="#52777f" stroke-linecap="round" stroke-width="2.6"/>
    <path d="M58 58.6v55a2.8 2.8 0 0 0 1.7 2.5l11.5 5.7 12-5.7a2.8 2.8 0 0 0 1.5-2.5v-55M58 103.5l12.7 7M58 92.3l12.7 7M58 81l12.7 7M58 69.8l12.7 7M84.7 103.5l-12.6 7M84.7 92.3l-12.6 7M84.7 81l-12.6 7M84.7 69.8l-12.6 7" fill="none" stroke="#52777f" stroke-linecap="round" stroke-linejoin="round" stroke-width="2.6"/>
    <path d="M41.6 127.3v65.9" fill="none" stroke="#52777f" stroke-linecap="round" stroke-width="2.6"/>
    <path d="M28.3 121.7v39.6a2.8 2.8 0 0 0 1.6 2.5l11.5 5.7 12-5.7a2.8 2.8 0 0 0 1.5-2.5v-39.6M28.3 151.1l12.6 7M28.3 139.9l12.6 7M28.3 128.7l12.6 7M55 151.1l-12.7 7M55 139.9l-12.7 7M55 128.7l-12.7 7" fill="none" stroke="#52777f" stroke-linecap="round" stroke-linejoin="round" stroke-width="2.6"/>
    <path d="M101.2 127.3v65.9" fill="none" stroke="#52777f" stroke-linecap="round" stroke-width="2.6"/>
    <path d="M87.9 121.7v39.6a2.8 2.8 0 0 0 1.5 2.5l11.6 5.7 11.9-5.7a2.8 2.8 0 0 0 1.6-2.5v-39.6M87.9 151.1l12.6 7M87.9 139.9l12.6 7M87.9 128.7l12.6 7M114.5 151.1l-12.6 7M114.5 139.9l-12.6 7M114.5 128.7l-12.6 7" fill="none" stroke="#52777f" stroke-linecap="round" stroke-linejoin="round" stroke-width="2.6"/>
    <path d="M14.6 48.8v143" fill="none" stroke="#52777f" stroke-linecap="round" stroke-width="2.6"/>
    <path d="M1.3 41.8v55a2.8 2.8 0 0 0 1.6 2.5l11.5 5.7 12-5.7a2.8 2.8 0 0 0 1.6-2.5v-55M1.3 86.6l12.6 7M1.3 75.4l12.6 7M1.3 64.2l12.6 7M1.3 53l12.6 7M28 86.6l-12.7 7M28 75.4l-12.7 7M28 64.2l-12.7 7M28 53l-12.7 7" fill="none" stroke="#52777f" stroke-linecap="round" stroke-linejoin="round" stroke-width="2.6"/>
    <path d="M128.2 48.8v143" fill="none" stroke="#52777f" stroke-linecap="round" stroke-width="2.6"/>
    <path d="M114.9 41.8v55a2.8 2.8 0 0 0 1.5 2.5l11.6 5.6 11.9-5.6a2.8 2.8 0 0 0 1.6-2.5v-55M114.9 86.6l12.6 7M114.9 75.4l12.6 7M114.9 64.2l12.6 7M114.9 53l12.6 7M141.5 86.6l-12.6 7M141.5 75.4l-12.6 7M141.5 64.2l-12.6 7M141.5 53l-12.6 7" fill="none" stroke="#52777f" stroke-linecap="round" stroke-linejoin="round" stroke-width="2.6"/>
    <path d="M989.7 36.2h-70.1M990.4 47.4h-70.1" fill="none" stroke="#52777f" stroke-width="2.6"/>
    <path d="M508.9 177.4a14 14 0 1 1-14-14 14 14 0 0 1 14 14z" fill="none" stroke="#52777f" stroke-width="2"/>
    <path d="M500.9 177.4a5.5 5.5 0 1 1-5.5-5.5 5.5 5.5 0 0 1 5.5 5.5zM567.5 140.8l-85.3-.3a2.8 2.8 0 0 1 0-5.6l88.7.3zM603.3 116.3h-8.9a3.4 3.4 0 1 1 0-6.7h8.9a3.4 3.4 0 0 1 0 6.7z" fill="none" stroke="#52777f" stroke-width="2"/>
    <path d="M567.5 140.8l-10 21.1h-45.8s-21.5-1.3-28-21.4" fill="none" stroke="#52777f" stroke-width="2"/>
    <path d="M494.9 177.4s11.2-15.6 17.9-15.6" fill="none" stroke="#52777f" stroke-linecap="round" stroke-width="2"/>
    <path d="M570.9 135.2s13.4-22.3 20.1-22.3M525.9 161.9c6 0 15.4 16.5 19 23l1.6 3.5a5.7 5.7 0 0 0 5.3 3.7 5.3 5.3 0 0 0 3.9-1.6 6.1 6.1 0 0 0 1.7-4.3V162M342.3 126l-6.6-1 9-59.8a2.2 2.2 0 0 1 2.6-1.9l2.2.4a2.2 2.2 0 0 1 1.9 2.5z" fill="none" stroke="#52777f" stroke-width="2"/>
    <path d="M325.2 148.4l3.4-22.1a2.4 2.4 0 0 1 2.7-2l5.5.8M341.2 125.8l5.5.8a2.4 2.4 0 0 1 2 2.8l-3.4 22M335.6 124.9l-3.7 24.4M338.9 150.3l3.7-24.4M286 150.4h-25.6A12.6 12.6 0 0 0 248 163v17.2a12.6 12.6 0 0 0 12.5 12.5h25.7a12.6 12.6 0 0 0 12.5-12.5V163a12.6 12.6 0 0 0-12.5-12.6zM258 163.3h10.6M300.3 128.1h10.6M283.9 173.9h8.2M258 183.3h20" fill="none" stroke="#52777f" stroke-linecap="round" stroke-width="2"/>
    <path d="M336.6 150.4h-25.7a12.6 12.6 0 0 0-12.5 12.6v17.2a12.6 12.6 0 0 0 12.6 12.5h25.6a12.6 12.6 0 0 0 12.5-12.5V163a12.6 12.6 0 0 0-12.5-12.6zM309.6 108.1h-25.7a12.6 12.6 0 0 0-12.5 12.6v17.2a12.6 12.6 0 0 0 12.5 12.5h25.7A12.6 12.6 0 0 0 322 138v-17.2a12.6 12.6 0 0 0-12.5-12.6zM314.4 170.4H332M292 139.9h17.7M332 159.8h8.2M283.9 116.4h8.2M315.6 184.5h9.3" fill="none" stroke="#52777f" stroke-linecap="round" stroke-width="2"/>
    <path d="M706.5 148.1l20.3-20.3a3.5 3.5 0 0 1 4.9 0l3 3a3.5 3.5 0 0 1 0 4.9L714.4 156M698.6 156l-27.4 27.4a3.5 3.5 0 0 0 0 4.9l3 3a3.5 3.5 0 0 0 5 0l27.2-27.4" fill="none" stroke="#52777f" stroke-width="2"/>
    <path d="M741.8 188.3l-3 3a3.5 3.5 0 0 1-5 0l-55.5-55.6a3.5 3.5 0 0 1 0-5l3-3a3.5 3.5 0 0 1 4.9 0l55.5 55.7a3.5 3.5 0 0 1 0 4.9zM732.4 137.8a1630 1630 0 0 0 33.7 39.3" fill="none" stroke="#52777f" stroke-width="2"/>
    <path d="M718.3 152.2c15.2 12 25.4 23.5 36.6 31.9" fill="none" stroke="#52777f" stroke-linecap="round" stroke-width="2"/>
    <path d="M687.6 129.4c6.3 4.1 13.8 9.7 21.8 15.8M764 177a61.7 61.7 0 0 0-7.3 3.7 3.1 3.1 0 0 0-1.3 3.9l1.9 3c.7 1 2.4 1 3.8.3a29.2 29.2 0 0 1 7.4-2.5c1.4-.3 1.9-1.9 1.2-3.4l-1.9-3.7a3 3 0 0 0-3.8-1.2zM809.5 181.3a9.8 9.8 0 1 1-9.8-9.8 9.8 9.8 0 0 1 9.8 9.8z" fill="none" stroke="#52777f" stroke-width="2"/>
    <path d="M830.6 181.3a9.8 9.8 0 1 1-9.8-9.8 9.8 9.8 0 0 1 9.8 9.8zM819.4 163a9.8 9.8 0 1 1-9.9-9.8 9.8 9.8 0 0 1 9.9 9.8zM460.2 181.7a.8.8 0 0 1-.7.8l-11.2 1.4-3.5.5a2.2 2.2 0 0 0-1.9 1.5l-1.3 3.5a2.2 2.2 0 0 1-1.8 1.5l-7.8.9a.8.8 0 0 1-.8-.4 15.8 15.8 0 1 1 29-9.8z" fill="none" stroke="#52777f" stroke-width="2"/>
    <path d="M440.5 176.7a1.4 1.4 0 1 1-1-1.8 1.4 1.4 0 0 1 1 1.8M446.7 175.6a1.4 1.4 0 1 1-1-1.8 1.4 1.4 0 0 1 1 1.8" fill="#52777f" fill-rule="evenodd"/>
    <path d="M890.6 98.9a25.7 25.7 0 1 1-51.2-3.2l9.6-77.4a16 16 0 0 1 32 2l9.3 74.6.2 1.3v2.7z" fill="none" stroke="#52777f" stroke-linecap="round" stroke-width="2.6"/>
    <path d="M864.9 95v96.8" fill="none" stroke="#52777f" stroke-linecap="round" stroke-linejoin="round" stroke-width="2.6"/>
    <path d="M428 122.6a21.6 21.6 0 1 1-43-2.7l8-65.1a13.5 13.5 0 0 1 27 1.7l7.8 62.8.1 1 .2 2.3z" fill="none" stroke="#52777f" stroke-linecap="round" stroke-width="2.6"/>
    <path d="M406.5 127.3v64.5" fill="none" stroke="#52777f" stroke-linecap="round" stroke-linejoin="round" stroke-width="2.6"/>
    <path d="M660.6 132.2a18.6 18.6 0 0 1-37.2 0 19.6 19.6 0 0 1 .1-2.3l7-56.1a11.6 11.6 0 0 1 23.1 1.4l6.8 54.2.1 1 .1 1.8z" fill="none" stroke="#52777f" stroke-linecap="round" stroke-width="2.6"/>
    <path d="M642 138.5v52.9" fill="none" stroke="#52777f" stroke-linecap="round" stroke-linejoin="round" stroke-width="2.6"/>
    <path d="M230.8 114.4a29 29 0 1 1-58 0 28.5 28.5 0 0 1 .2-3.6l10.8-87.5a18.1 18.1 0 0 1 36 2.2l10.6 84.5.2 1.4c.2 1 .2 2 .2 3z" fill="none" stroke="#52777f" stroke-linecap="round" stroke-width="2.6"/>
    <path d="M201.8 127.3v64.5" fill="none" stroke="#52777f" stroke-linecap="round" stroke-linejoin="round" stroke-width="2.6"/>
  </g>
</svg>
