<svg version="1.1" id="fork" xmlns="http://www.w3.org/2000/svg" width="23" height="23" viewBox="0 0 512 512"
     xml:space="preserve">
    <path class="st0" fill="currentColor"
          d="M207.103 23.875v109.219c0 7-5.656 12.641-12.625 12.641h-3.375c-6.969 0-12.641-5.641-12.641-12.641V23.375c0-18-12.109-23.375-23.719-23.375s-23.719 5.375-23.719 23.375v109.719c0 7-5.672 12.641-12.641 12.641h-3.375c-6.969 0-12.625-5.641-12.625-12.641V23.875c0-32.219-45.938-31.125-45.938.359v104.297c-.219 57.906 13.625 72.953 36.469 91 18.422 14.531 34.156 22.859 34.156 58.953v232.188h55.344V278.484c0-36.094 15.734-44.422 34.156-58.953 22.859-18.047 36.688-33.094 36.469-91V24.234c.001-31.484-45.936-32.578-45.936-.359zM385.228 34.75c-11.75 32.953-45.578 110.156-47.719 178.344-3.313 105.844 61.547 90.188 62.703 159.531v138.688h55.078l.266.688V34.751c0-40.189-52.032-51.282-70.328-.001z"/></svg>