<svg xmlns="http://www.w3.org/2000/svg" width="32" height="32" id="cart" viewBox="0 0 32 32">
    <path fill="currentColor" fill-rule="evenodd" d="M2 6.5A.8.8 0 013.3 6l3.3 1.7a.8.8 0 01.5.8v9.1l15.2 2.6A4.2 4.2 0 1122 22l-5-.9-4.7 3.5a2.5 2.5 0 01-1.4.4A2.6 2.6 0 018 22.4v-2.8L6 19.2a.8.8 0 01-.7-.8V9.1L2.5 7.6A.8.8 0 012 6.5zm24 12.9a2.5 2.5 0 00-2 1.2l2.2.4a.8.8 0 01.7 1 .8.8 0 01-.8.7h-.2l-2.3-.4a2.5 2.5 0 102.4-3zm-16.2.5v2.5a1 1 0 00.5.8.9.9 0 001 0l3.3-2.4zm16.8-9.5a.6.6 0 01.5 1l-5.4 6.3a.5.5 0 01-.5.1l-12-2a.6.6 0 01-.5-.5V11a.6.6 0 01.5-.6h17.4z"/>
</svg>