<svg xmlns="http://www.w3.org/2000/svg" width="51" height="35.9" id="cow--question" viewBox="0 0 51 35.9">
  <path fill="currentColor" d="M19.4 0c3.7 0 6.1 2 8 3.7a13 13 0 002.2 1.6A7.5 7.5 0 0033 6a8 8 0 013.8.6 3.6 3.6 0 012 3c0 2.3-1.6 2.8-3.1 3.4-2.3.8-4.9 1.8-4.9 7.8v2.4l.2 2.3a12 12 0 01-.6 3.8v.2c-1.8 5.1-7.1 6.2-9.5 6.4l-1 .1h-1c-1 0-8.3-.3-10.5-6.5v-.2a12.2 12.2 0 01-.6-3.7V23l.2-2.4c0-6-2.6-7-4.9-7.8C1.6 12.3 0 11.8 0 9.6a3.6 3.6 0 012-3 8 8 0 013.8-.7A7.5 7.5 0 009 5.3a13 13 0 002.2-1.6c2-1.6 4.4-3.7 8-3.7zm0 23.2a11.5 11.5 0 00-10.1 6l.2.5.2.5a4.5 4.5 0 00.3.4l.2.4.3.5.3.3.4.4.3.3.4.3.3.3.5.2.3.2.5.3.3.1.4.2.4.2.4.1.3.1.5.1.3.1h.4l.3.1.3.1h5.2l.4-.1.3-.1a3.6 3.6 0 00.4-.1l.4-.2h.4l.4-.2.4-.3.4-.2.4-.2.3-.2.4-.3.4-.2.4-.3.3-.4.4-.3c.2-.1.2-.3.3-.4l.3-.4a4.5 4.5 0 00.2-.4l.3-.5.2-.5.2-.4a11.5 11.5 0 00-10.1-6zm.1 8.7c.8 0 1.5.5 1.5 1s-.7 1-1.5 1-1.5-.5-1.5-1 .7-1 1.5-1zm5.5-29a6.6 6.6 0 00-4.1 4.3 13.9 13.9 0 00-.4 3 9.5 9.5 0 01-1 4.6 8.1 8.1 0 01-4.1 3l-1.3.5a15.6 15.6 0 00-3.2 1.3 5.2 5.2 0 00-2.1 2.5v1l-.1 2.3A11.8 11.8 0 009 28a12.3 12.3 0 0120.9 0 11.9 11.9 0 00.3-2.7V23l-.2-2.3c0-6.6 3.1-7.7 5.4-8.6 1.7-.6 2.6-1 2.6-2.5a2.8 2.8 0 00-1.6-2.3 7.3 7.3 0 00-3.4-.6 8 8 0 01-3.8-.6A13.7 13.7 0 0127 4.3L25 2.8zm19.3 12a6.5 6.5 0 110 13 7 7 0 01-1.3-.1 29.3 29.3 0 00-3.7-.3 24.5 24.5 0 00-3.4.3h-.2a.7.7 0 01-.7-.7c0-.3.2-.5.5-.8a7.8 7.8 0 002-4.9c.9-6 5.4-6.5 6.8-6.5zm0 .8c-1.2 0-5.2.4-5.9 5.8a8.5 8.5 0 01-2.3 5.3l-.1.2a24 24 0 013.3-.3 30.2 30.2 0 013.8.3 6.8 6.8 0 001.2.1 5.7 5.7 0 100-11.4zM18 24.9a1 1 0 11-1 1 1 1 0 011-1zm3 0a1 1 0 11-1 1 1 1 0 011-1zm22.8-1a.2.2 0 01.2.2v.6a.2.2 0 01-.2.2h-.6a.2.2 0 01-.2-.2v-.6a.2.2 0 01.2-.2h.6zm-.2-6c1.7 0 2.4.8 2.4 1.8 0 1.8-2 1.7-2 2.9v.3H43v-.5c0-1.2 1-1.4 1.6-2a.9.9 0 000-1.1 1.6 1.6 0 00-1.6-.2c-.5.2-.6.6-.6 1.2H41c-.2-1.3.7-2.4 2.6-2.4zM19.4.9c-3.4 0-5.7 2-7.6 3.4a13.3 13.3 0 01-2.3 1.8 8 8 0 01-3.7.6 7.2 7.2 0 00-3.4.6A2.8 2.8 0 00.8 9.6c0 1.5.9 1.9 2.6 2.5 2.2.8 5.3 2 5.4 8.4a6.6 6.6 0 011.6-1.5 17 17 0 013.4-1.5l1.2-.4a7 7 0 003.8-2.7 8.8 8.8 0 00.9-4.2A15.2 15.2 0 0120 7a7.5 7.5 0 014-4.7A9 9 0 0019.4.8zm-3.9 10a1.5 1.5 0 11-1.5 1.5 1.5 1.5 0 011.5-1.5zm8 0a1.5 1.5 0 11-1.5 1.5 1.5 1.5 0 011.5-1.5zm-7-2a.4.4 0 01.5.2.3.3 0 01-.2.4 5 5 0 01-3.5 0 .3.3 0 01-.2-.4.4.4 0 01.4-.2 4 4 0 003 0zm6.7-1.5c1-1 2.2-.5 2.8.6a.7.7 0 010 .7.3.3 0 01-.3.2.3.3 0 01-.3-.2c-.4-.7-1.2-1-1.8-.4-.2.1-.4 0-.5-.1a.7.7 0 010-.7z" fill-rule="evenodd"/>
</svg>
