<svg id="mail" xmlns="http://www.w3.org/2000/svg" viewBox="0 0 18 15">
    <path
          d="M16.286,12.353c0,.485-.386,.882-.857,.882H2.571c-.471,0-.857-.397-.857-.882V4.2l6.446,3.944c.257,.15,.549,.229,.831,.229,.3,0,.591-.079,.866-.238l6.429-3.935V12.353ZM2.571,1.765H15.429c.326,0,.609,.185,.746,.459l-7.149,4.394L1.826,2.215c.146-.265,.429-.45,.746-.45h0Zm15.077-.45c-.446-.785-1.277-1.315-2.22-1.315H2.571C1.629,0,.806,.529,.351,1.306c-.223,.397-.351,.856-.351,1.341V12.353c0,1.456,1.157,2.647,2.571,2.647H15.429c1.414,0,2.571-1.191,2.571-2.647V2.647c0-.485-.129-.935-.351-1.332h0Z"
          fill="currentColor" fill-rule="evenodd"/>
</svg>