<svg xmlns="http://www.w3.org/2000/svg" viewBox="0 0 57.54 23.34">
    <rect x="0.25" y="6.44" width="27.66" height="16.65"
          style="fill:none;stroke:#557b8b;stroke-linecap:round;stroke-miterlimit:10;stroke-width:0.5px"/>
    <polyline points="27.91 11.28 54.06 11.36 57.26 12.75"
              style="fill:none;stroke:#557b8b;stroke-linecap:round;stroke-miterlimit:10;stroke-width:0.5px"/>
    <polyline points="0.25 6.74 0.25 3.78 16.98 0.26 27.91 4.49 27.91 7.31"
              style="fill:none;stroke:#557b8b;stroke-linecap:round;stroke-miterlimit:10;stroke-width:0.5px"/>
    <rect x="4.7" y="13.24" width="6.95" height="9.85" rx="0.24"
          style="fill:none;stroke:#557b8b;stroke-linecap:round;stroke-miterlimit:10;stroke-width:0.5px"/>
    <line x1="4.7" y1="13.24" x2="11.65" y2="23.09"
          style="fill:none;stroke:#557b8b;stroke-linecap:round;stroke-miterlimit:10;stroke-width:0.5px"/>
    <line x1="11.65" y1="13.24" x2="4.7" y2="23.09"
          style="fill:none;stroke:#557b8b;stroke-linecap:round;stroke-miterlimit:10;stroke-width:0.5px"/>
    <path d="M18.51,14.5H21a2.07,2.07,0,0,1,2.07,2.07v1.79a0,0,0,0,1,0,0H16.44a0,0,0,0,1,0,0V16.58a2.07,2.07,0,0,1,2.07-2.07Z"
          style="fill:none;stroke:#557b8b;stroke-linecap:round;stroke-miterlimit:10;stroke-width:0.5px"/>
    <polyline points="27.91 9.01 54.06 9.16 57.3 10.52 57.3 23.09 27.91 23.09"
              style="fill:none;stroke:#557b8b;stroke-linecap:round;stroke-miterlimit:10;stroke-width:0.5px"/>
    <rect x="45.73" y="15.55" width="8.32" height="1.76"
          style="fill:none;stroke:#557b8b;stroke-linecap:round;stroke-miterlimit:10;stroke-width:0.37522300941845627px"/>
    <rect x="30.9" y="15.06" width="12.21" height="8.03" rx="0.28"
          style="fill:none;stroke:#557b8b;stroke-linecap:round;stroke-miterlimit:10;stroke-width:0.4674794375896454px"/>
    <line x1="31.1" y1="15.19" x2="43.1" y2="23.09"
          style="fill:none;stroke:#557b8b;stroke-linecap:round;stroke-miterlimit:10;stroke-width:0.4674794375896454px"/>
    <line x1="42.93" y1="15.17" x2="30.9" y2="23.09"
          style="fill:none;stroke:#557b8b;stroke-linecap:round;stroke-miterlimit:10;stroke-width:0.4674794375896454px"/>
</svg>