<svg xmlns="http://www.w3.org/2000/svg" id="phone" width="14.4" height="14.4" viewBox="0 0 14.4 14.4">
  <path fill="currentColor" d="M4 .5l1.5 3a.9.9 0 0 1-.3 1.2L4 5.6c-.3.3-.3.2-.1.5a11.3 11.3 0 0 0 4.3 4.3c.3.2.4.2.6-.1a10 10 0 0 1 .8-1 1 1 0 0 1 1.2-.3l3 1.5a1 1 0 0 1 .4 1.3 62 62 0 0 1-1.2 2 1.4 1.4 0 0 1-1.4.6 10.1 10.1 0 0 1-5.4-2A15.1 15.1 0 0 1 .6 5.5 8.5 8.5 0 0 1 0 2.8a1.4 1.4 0 0 1 .7-1.4L2.5.2A1 1 0 0 1 4 .5zm4.3 2.2a3.7 3.7 0 0 1 3.4 3.5c0 .6-.2.9-.6 1s-.7-.3-.7-.9a2.3 2.3 0 0 0-2.2-2.2c-.6 0-.9-.3-.8-.7s.3-.7.9-.7zM8.2.1h.1a6.3 6.3 0 0 1 6 6c0 .6-.2 1-.6 1s-.7-.3-.7-.8a5 5 0 0 0-4.1-4.8 5.8 5.8 0 0 0-.8 0c-.5 0-.8-.3-.7-.7s.3-.7.8-.7z" fill-rule="evenodd"/>
</svg>
