<svg xmlns="http://www.w3.org/2000/svg" width="68.5" height="59.5" viewBox="0 0 68.5 59.5">
  <path fill="none" stroke="#3d5966" stroke-linecap="round" stroke-width=".5" d="M17.3 59.3h51V24.8L42.8 12.2 17.3 24.9v34.5z"/>
  <path fill="none" stroke="#3d5966" stroke-linecap="round" stroke-width=".5" d="M68.3 25.3V21L42.8 8.2 17.3 21v4.3M48.8 59.3H36.7a.4.4 0 01-.5-.5V41.7a.4.4 0 01.5-.5h12.1a.4.4 0 01.5.5v17.1a.4.4 0 01-.5.5zM36.3 41.3l13 18M49.3 41.3l-13 18"/>
  <path d="M42.8 23.3h0a2.4 2.4 0 00-2.5 2.3v4.6h5v-4.6a2.4 2.4 0 00-2.5-2.4zM21.3 59.3H.3V10.9A10.6 10.6 0 0110.7.2 10.6 10.6 0 0121.4 11v7.7M.3 14.3h21" fill="none" stroke="#3d5966" stroke-linecap="round" stroke-width=".5"/>
  <path fill="none" stroke="#3d5966" stroke-width=".5" d="M.3 10.3h21"/>
</svg>