<svg xmlns="http://www.w3.org/2000/svg" width="64" height="64" viewBox="0 0 64 64">
    <path fill="#fff" d="M0 0h64v64H0z"/>
    <ellipse stroke="#cfdae2" stroke-width="2" fill="none" cx="32" cy="32" rx="31" ry="31"></ellipse>
    <path fill="#52777F" fill-rule="evenodd" d="M32 13.2c5.2 0 7.8 4 10 5.3 2.1 1 4.9 0 7.1 1.1a3.5 3.5 0 012 3c0 2.2-1.6 2.7-3 3.3-2.3.8-4.8 1.8-4.8 7.7 0 3 .5 5.5-.4 8.3a8.6 8.6 0 01-2.2 3.5 20.5 20.5 0 011.8 3.7 2 2 0 01.8-.8c1.1-.4 1.9 1 .7 1.5l.3.1c.9.4 1 1.4.3 1.7 1 .8.4 2.2-.6 1.8.2 1.7-1.9 2-1.9.2a2 2 0 010-.3c-1 .8-2-.5-1.1-1.5a.8.8 0 01-.7-1.1 1 1 0 01.2-.2c-1.2-.4-.6-2.2 1.1-1.5a28 28 0 00-1.5-3 12.8 12.8 0 01-8.1 2.5h-.4c-1 0-8.2-.2-10.4-6.4v-.2c-1-2.8-.4-5.3-.4-8.3 0-5.7-2.4-6.8-4.6-7.6l-.2-.1c-1.5-.6-3-1.1-3-3.3a3.5 3.5 0 012-3c2.2-1.2 5 0 7-1.1 2.2-1.2 4.8-5.3 10-5.3zm11 39.4a2.3 2.3 0 00-.2 1c0 .4.1.6.2.6s.4-.2.4-.6a1.7 1.7 0 00-.4-1zm-.5-.8a1.8 1.8 0 00-1 .5c-.3.3-.2.5-.1.6s.3 0 .5-.2a2.4 2.4 0 00.5-.9zm.8 0a2.4 2.4 0 00.6.9c.2.2.4.2.5.2s.2-.4 0-.7a1.8 1.8 0 00-1.1-.4zm-1.1-1.2c-.4 0-1.1 0-1.3.3s.1.4.5.3a2.1 2.1 0 00.8-.6zm1.8 0a1.5 1.5 0 00-1 0 2.1 2.1 0 00.8.4c.7.3.7-.3.2-.5zm-2.5-1c-.2 0-.8-.2-1 0s0 .4.4.3a1.9 1.9 0 00.7-.2zM44 49s-.2-.2-.4 0a1.3 1.3 0 00-.6.4 1.8 1.8 0 00.7-.1l.3-.3zM32 36a11.3 11.3 0 00-10 6c1.5 4 6 5.9 10 5.7a11.9 11.9 0 007.7-2.4 18 18 0 00-1.3-2 5.7 5.7 0 01-3.3 1.3.4.4 0 01-.4-.4.4.4 0 01.4-.5 5 5 0 004-2.3.4.4 0 11.7.5 5.2 5.2 0 01-.8 1 19.3 19.3 0 011.4 1.8 4.1 4.1 0 00.4-.5 3.7 3.7 0 00.6-.8 4.6 4.6 0 00.5-1l.1-.4a11.3 11.3 0 00-10-6zm5.5-20a6.5 6.5 0 00-4 4.3c-.7 2.4 0 5.2-1.4 7.5-2.4 4-9 3-10.5 7.2a20.4 20.4 0 00.1 6 12.1 12.1 0 0120.6 0c.6-2.5.1-4.6.1-7.4 0-6.5 3.1-7.6 5.4-8.5 1.6-.6 2.5-1 2.5-2.4a2.7 2.7 0 00-1.5-2.3c-2-1-4.8 0-7-1.2-1.3-.7-2.6-2-4.3-3.2zm-7.4 22.4a.8.8 0 11-.7.8.8.8 0 01.7-.8zm3.8 0a.8.8 0 11-.8.8.8.8 0 01.8-.8zM32 14c-3.4 0-5.6 2-7.4 3.5-2.3 2-2.9 2.3-6 2.3a7.1 7.1 0 00-3.4.5 2.7 2.7 0 00-1.5 2.3c0 1.5.9 1.9 2.5 2.5 2.2.8 5.3 2 5.4 8.3 2.6-3.3 7.8-2.7 9.8-6 1.2-2 .6-4.9 1.3-7.4a7.4 7.4 0 014-4.6A8.8 8.8 0 0032 14zm1.7 10.6a2.6 2.6 0 014.6-.3.4.4 0 01-.2.6.4.4 0 01-.5-.2A1.8 1.8 0 0036 24a1.8 1.8 0 00-1.6 1.1.4.4 0 01-.4.3.4.4 0 01-.3-.7zm-8-.3a2.6 2.6 0 014.6.3.4.4 0 01-.3.6.4.4 0 01-.4-.3 1.8 1.8 0 00-3.1-.2.4.4 0 01-.6.2.4.4 0 01-.2-.5z"/>
</svg>