<svg  id="form" xmlns="http://www.w3.org/2000/svg" viewBox="0 0 599 599">
    <g fill="currentColor" transform="translate(28 34)" fill-rule="evenodd">
        <path d="M316.875 181h-211.75C96.7716932 181 90 174.209652 90 165.833333v-60.666666C90 96.790348 96.7716932 90 105.125 90h211.75C325.228307 90 332 96.790348 332 105.166667v60.666666C332 174.209652 325.228307 181 316.875 181ZM120.25 150.666667h181.5v-31.243334h-181.5v31.243334ZM316.875 212h-211.75C96.7716932 212 90 218.730854 90 227.033784v58.932432C90 294.269146 96.7716932 301 105.125 301h171.82L332 245.375v-18.341216C332 218.730854 325.228307 212 316.875 212Zm-15.125 58.932432h-181.5v-30.067567h181.5v30.067567Z"/>
        <path d="M166.655 475.601v-.906l4.826667-20.989H60.1666667V60.2H361.833333v154.775L392 186.436V45.1c0-8.3394997-6.753038-15.1-15.083333-15.1H45.0833333C36.7530384 30 30 36.7605003 30 45.1v422.8c0 8.3395 6.7530384 15.1 15.0833333 15.1H165.75c.124278-2.484848.426723-4.957547.905-7.399ZM331.35 288.575l-11.7 11.85c5.935819-1.223634 10.552078-5.899075 11.7-11.85Z"/>
        <path d="M90 406.848485C90 415.216436 96.7546982 422 105.087041 422h73.021276l4.526112-19.69697 1.961316-8.333333v-.757576h-64.421664V362.30303h95.651838L246 332H105.087041C96.7546982 332 90 338.783564 90 347.151515v59.69697Z"/>
        <path d="m504.869182 251.045689-50.883724-50.899805C449.424655 195.571127 443.231366 193 436.772566 193c-6.458801 0-12.65209 2.571127-17.212892 7.145884L212.551999 408.42728l-17.061902 72.649276c-1.290131 6.329975-.009238 12.913314 3.560014 18.297221 3.569253 5.383907 9.133473 9.125826 15.464761 10.399999a23.3962502 23.3962502 0 0 0 4.680699 0c1.850007.301632 3.736634.301632 5.58664 0l73.230287-16.161066 206.856684-207.375168C509.433385 281.70114 512 275.530881 512 269.094729s-2.566615-12.606411-7.130818-17.142812v-.906228ZM282.611489 466.123795l-55.262443 12.234078 13.438135-54.826793L396.00519 266.602602l42.579259 42.592715-155.97296 156.928478Zm173.034862-173.995771-42.579259-42.592715 24.007454-23.712966 42.88124 42.894791-24.309435 23.41089Z"/>
    </g>
</svg>