<svg id="puzzle" xmlns="http://www.w3.org/2000/svg" viewBox="0 0 599 599">
<g id="Page-1" fill="none" fill-rule="evenodd" stroke="none" stroke-width="1">
    <g id="Group" stroke="currentColor" stroke-width="25" transform="translate(13 142)">
        <path id="Path" d="M553.643 0H351.566l.194 76.721c5.039-1.151 10.202-1.726 15.483-1.726 38.679 0 70.143 31.479 70.143 70.158.008 18.742-7.288 36.362-20.538 49.62-13.25 13.258-30.872 20.56-49.62 20.56-5.265 0-10.436-.583-15.475-1.734l-.187 59.536v.591h54.039c2.045 0 3.942 1.043 5.031 2.77 1.096 1.726 1.236 3.887.365 5.738-3.273 6.937-5.125 14.666-5.125 22.847 0 29.961 24.301 54.247 54.249 54.247 29.969 0 54.247-24.286 54.247-54.247 0-8.181-1.851-15.91-5.123-22.847-.871-1.851-.739-4.02.357-5.738 1.097-1.726 2.994-2.77 5.039-2.77h38.999c10.957 0 19.829-8.872 19.829-19.829V19.83C573.473 8.873 564.6 0 553.643 0ZM270.244 199.408c29.953 0 54.225-24.3 54.217002-54.247 0-29.963-24.263002-54.241-54.217002-54.241h-.07c-8.165 0-15.88 1.851-22.793 5.117-.817.389-1.686.575-2.558.575-1.112 0-2.217-.311-3.188-.925-1.726-1.104-2.762-3.001-2.762-5.047L238.64 0H19.829C8.88 0 0 8.873 0 19.83v72.064c0 2.27 1.174 4.37 3.096 5.56 1.05.653 2.247.979 3.445.979.995 0 1.997-.226 2.916-.685 7.192-3.593 15.249-5.66 23.849-5.66 30.133 0 54.567 24.432 54.567 54.565S63.439 201.22 33.306 201.22c-8.6 0-16.657-2.069-23.849-5.662-.925-.459-1.921-.691-2.924-.691-1.198 0-2.387.334-3.437.979C1.167 197.045 0 199.144 0 201.415v51.837c0 10.957 8.88 19.829 19.829 19.829H238.64l.233-73.409c0-2.037 1.043-3.934 2.769-5.023.971-.623 2.091-.933 3.211-.933.855 0 1.726.186 2.527.561 6.937 3.281 14.658 5.131 22.847 5.131h.017Z"/>
    </g>
</g>
</svg>