<?xml version="1.0" encoding="utf-8"?>
<!-- Generator: Adobe Illustrator 23.0.1, SVG Export Plug-In . SVG Version: 6.00 Build 0)  -->
<svg version="1.1" id="Layer_1" xmlns="http://www.w3.org/2000/svg" xmlns:xlink="http://www.w3.org/1999/xlink" x="0px" y="0px"
	 viewBox="0 0 78 44" style="enable-background:new 0 0 78 44;" xml:space="preserve">
<style type="text/css">
	.st0{fill:#CFDAE2;}
</style>
<title>Asset 32</title>
<g>
	<path class="st0" d="M66.4,43H11.5c-6.1,0-11-4.9-11-11V12c0-6.1,4.9-11,11-11h54.9c6.1,0,11,4.9,11,11v19.9
		C77.4,38,72.4,43,66.4,43z M11.5,3c-5,0-9,4-9,9v19.9c0,5,4,9,9,9h54.9c5,0,9-4,9-9V12c0-5-4-9-9-9H11.5z"/>
</g>
<g>
	<circle class="st0" cx="55" cy="11.6" r="4"/>
</g>
<g>
	<path class="st0" d="M76.4,32.5l-10.3-9.8c-0.8-0.7-2-0.7-2.7,0.1c-0.2,0.2-0.3,0.4-0.4,0.6l-2.9,7.3L43.8,17.2
		c-0.8-0.7-2-0.6-2.7,0.2c-0.1,0.1-0.2,0.3-0.3,0.4l-1.9,3.8L34.4,14c-0.5-0.9-1.7-1.2-2.6-0.7c-0.2,0.1-0.4,0.3-0.5,0.5L19.9,28.6
		l-3.8-5.3c-0.6-0.9-1.8-1-2.6-0.4L13.4,23L1.6,33.2c0.6,4.1,3.7,7.5,7.8,8.4h59.1C72.9,40.8,76.1,37,76.4,32.5z"/>
</g>
</svg>
